%TF.GenerationSoftware,KiCad,Pcbnew,9.0.2*%
%TF.CreationDate,2025-11-21T15:49:54+05:30*%
%TF.ProjectId,Handpad,48616e64-7061-4642-9e6b-696361645f70,rev?*%
%TF.SameCoordinates,Original*%
%TF.FileFunction,Copper,L2,Bot*%
%TF.FilePolarity,Positive*%
%FSLAX46Y46*%
G04 Gerber Fmt 4.6, Leading zero omitted, Abs format (unit mm)*
G04 Created by KiCad (PCBNEW 9.0.2) date 2025-11-21 15:49:54*
%MOMM*%
%LPD*%
G01*
G04 APERTURE LIST*
G04 Aperture macros list*
%AMRoundRect*
0 Rectangle with rounded corners*
0 $1 Rounding radius*
0 $2 $3 $4 $5 $6 $7 $8 $9 X,Y pos of 4 corners*
0 Add a 4 corners polygon primitive as box body*
4,1,4,$2,$3,$4,$5,$6,$7,$8,$9,$2,$3,0*
0 Add four circle primitives for the rounded corners*
1,1,$1+$1,$2,$3*
1,1,$1+$1,$4,$5*
1,1,$1+$1,$6,$7*
1,1,$1+$1,$8,$9*
0 Add four rect primitives between the rounded corners*
20,1,$1+$1,$2,$3,$4,$5,0*
20,1,$1+$1,$4,$5,$6,$7,0*
20,1,$1+$1,$6,$7,$8,$9,0*
20,1,$1+$1,$8,$9,$2,$3,0*%
G04 Aperture macros list end*
%TA.AperFunction,ComponentPad*%
%ADD10R,2.000000X2.000000*%
%TD*%
%TA.AperFunction,ComponentPad*%
%ADD11C,2.000000*%
%TD*%
%TA.AperFunction,ComponentPad*%
%ADD12R,2.000000X3.200000*%
%TD*%
%TA.AperFunction,ComponentPad*%
%ADD13R,1.730000X2.030000*%
%TD*%
%TA.AperFunction,ComponentPad*%
%ADD14O,1.730000X2.030000*%
%TD*%
%TA.AperFunction,ComponentPad*%
%ADD15RoundRect,0.250000X-0.600000X-0.725000X0.600000X-0.725000X0.600000X0.725000X-0.600000X0.725000X0*%
%TD*%
%TA.AperFunction,ComponentPad*%
%ADD16O,1.700000X1.950000*%
%TD*%
%TA.AperFunction,ComponentPad*%
%ADD17C,2.200000*%
%TD*%
%TA.AperFunction,ComponentPad*%
%ADD18C,1.524000*%
%TD*%
%TA.AperFunction,ViaPad*%
%ADD19C,0.600000*%
%TD*%
%TA.AperFunction,Conductor*%
%ADD20C,0.200000*%
%TD*%
G04 APERTURE END LIST*
D10*
%TO.P,SW3,A,A*%
%TO.N,Net-(J2-Pin_1)*%
X83860000Y-147200000D03*
D11*
%TO.P,SW3,B,B*%
%TO.N,Net-(J2-Pin_3)*%
X88860000Y-147200000D03*
%TO.P,SW3,C,C*%
%TO.N,Net-(J2-Pin_2)*%
X86360000Y-147200000D03*
D12*
%TO.P,SW3,MP*%
%TO.N,N/C*%
X80760000Y-139700000D03*
X91960000Y-139700000D03*
D11*
%TO.P,SW3,S1*%
X88860000Y-132700000D03*
%TO.P,SW3,S2*%
X83860000Y-132700000D03*
%TD*%
D13*
%TO.P,J3,1,Pin_1*%
%TO.N,EN1*%
X82540000Y-106305000D03*
D14*
%TO.P,J3,2,Pin_2*%
%TO.N,GND*%
X85080000Y-106305000D03*
%TO.P,J3,3,Pin_3*%
%TO.N,EN2*%
X87620000Y-106305000D03*
%TD*%
D15*
%TO.P,J1,1,Pin_1*%
%TO.N,GND*%
X82880000Y-94725000D03*
D16*
%TO.P,J1,2,Pin_2*%
%TO.N,+5V*%
X85380000Y-94725000D03*
%TO.P,J1,3,Pin_3*%
%TO.N,SCL*%
X87880000Y-94725000D03*
%TO.P,J1,4,Pin_4*%
%TO.N,SDA*%
X90380000Y-94725000D03*
%TD*%
D17*
%TO.P,SW4,1,1*%
%TO.N,GND*%
X157170000Y-92710000D03*
%TO.P,SW4,2,2*%
%TO.N,S4*%
X150820000Y-95250000D03*
%TD*%
%TO.P,SW5,1,1*%
%TO.N,GND*%
X137795000Y-92710000D03*
%TO.P,SW5,2,2*%
%TO.N,S2*%
X131445000Y-95250000D03*
%TD*%
D13*
%TO.P,J2,1,Pin_1*%
%TO.N,Net-(J2-Pin_1)*%
X83810000Y-124085000D03*
D14*
%TO.P,J2,2,Pin_2*%
%TO.N,Net-(J2-Pin_2)*%
X86350000Y-124085000D03*
%TO.P,J2,3,Pin_3*%
%TO.N,Net-(J2-Pin_3)*%
X88890000Y-124085000D03*
%TD*%
D17*
%TO.P,SW6,1,1*%
%TO.N,GND*%
X118745000Y-92710000D03*
%TO.P,SW6,2,2*%
%TO.N,S1*%
X112395000Y-95250000D03*
%TD*%
D18*
%TO.P,U1,1,GPIO26/ADC0/A0*%
%TO.N,EN1*%
X213360000Y-90170000D03*
%TO.P,U1,2,GPIO27/ADC1/A1*%
%TO.N,EN2*%
X210820000Y-90170000D03*
%TO.P,U1,3,GPIO28/ADC2/A2*%
%TO.N,unconnected-(U1-GPIO28{slash}ADC2{slash}A2-Pad3)_1*%
X208280000Y-90170000D03*
%TO.P,U1,4,GPIO29/ADC3/A3*%
%TO.N,unconnected-(U1-GPIO29{slash}ADC3{slash}A3-Pad4)*%
X205740000Y-90170000D03*
%TO.P,U1,5,GPIO6/SDA*%
%TO.N,SCL*%
X203200000Y-90170000D03*
%TO.P,U1,6,GPIO7/SCL*%
%TO.N,SDA*%
X200660000Y-90170000D03*
%TO.P,U1,7,GPIO0/TX*%
%TO.N,Net-(D1-DIN)*%
X198120000Y-90170000D03*
%TO.P,U1,8,GPIO1/RX*%
%TO.N,S4*%
X198120000Y-105410000D03*
%TO.P,U1,9,GPIO2/SCK*%
%TO.N,S3*%
X200660000Y-105410000D03*
%TO.P,U1,10,GPIO4/MISO*%
%TO.N,S2*%
X203200000Y-105410000D03*
%TO.P,U1,11,GPIO3/MOSI*%
%TO.N,S1*%
X205740000Y-105410000D03*
%TO.P,U1,12,3V3*%
%TO.N,unconnected-(U1-3V3-Pad12)*%
X208280000Y-105410000D03*
%TO.P,U1,13,GND*%
%TO.N,GND*%
X210820000Y-105410000D03*
%TO.P,U1,14,VBUS*%
%TO.N,+5V*%
X213360000Y-105410000D03*
%TD*%
D17*
%TO.P,SW1,1,1*%
%TO.N,GND*%
X176220000Y-92710000D03*
%TO.P,SW1,2,2*%
%TO.N,S3*%
X169870000Y-95250000D03*
%TD*%
D19*
%TO.N,Net-(D1-DIN)*%
X194731600Y-84821700D03*
%TO.N,+5V*%
X103103100Y-100163200D03*
X103081600Y-86348300D03*
X189928000Y-87722700D03*
X103103100Y-91792000D03*
X191113300Y-106225100D03*
%TO.N,GND*%
X180852900Y-107555000D03*
X209483600Y-109349900D03*
%TO.N,Net-(D1-DOUT)*%
X98476800Y-87555900D03*
X99826000Y-109328500D03*
%TO.N,Net-(D2-DOUT)*%
X99226000Y-108149200D03*
X104512100Y-88923300D03*
%TO.N,Net-(D3-DOUT)*%
X194868400Y-107820100D03*
X190878000Y-87104400D03*
%TO.N,SCL*%
X203582800Y-84720100D03*
X88517200Y-85572700D03*
%TO.N,S3*%
X197682000Y-94327000D03*
%TO.N,EN1*%
X210455400Y-111286000D03*
%TO.N,EN2*%
X90426800Y-89138800D03*
%TD*%
D20*
%TO.N,Net-(D1-DIN)*%
X198120000Y-90170000D02*
X194731600Y-86781600D01*
X194731600Y-86781600D02*
X194731600Y-84821700D01*
%TO.N,+5V*%
X103081600Y-86348300D02*
X103081600Y-91770500D01*
X103103100Y-100163200D02*
X103103100Y-91792000D01*
X191113300Y-106225100D02*
X189928000Y-105039800D01*
X103081600Y-91770500D02*
X103103100Y-91792000D01*
X189928000Y-105039800D02*
X189928000Y-87722700D01*
%TO.N,GND*%
X85080000Y-106305000D02*
X83913300Y-106305000D01*
X180852900Y-97342900D02*
X176220000Y-92710000D01*
X82880000Y-94725000D02*
X83913300Y-95758300D01*
X180852900Y-107555000D02*
X180852900Y-97342900D01*
X83913300Y-95758300D02*
X83913300Y-106305000D01*
X210820000Y-108013500D02*
X209483600Y-109349900D01*
X210820000Y-105410000D02*
X210820000Y-108013500D01*
%TO.N,Net-(D1-DOUT)*%
X99827700Y-88906800D02*
X98476800Y-87555900D01*
X99826000Y-109328500D02*
X99827700Y-109326800D01*
X99827700Y-109326800D02*
X99827700Y-88906800D01*
%TO.N,Net-(D2-DOUT)*%
X104512100Y-105500700D02*
X100042200Y-109970600D01*
X99224200Y-109642800D02*
X99224200Y-108151000D01*
X100042200Y-109970600D02*
X99552000Y-109970600D01*
X99552000Y-109970600D02*
X99224200Y-109642800D01*
X104512100Y-88923300D02*
X104512100Y-105500700D01*
X99224200Y-108151000D02*
X99226000Y-108149200D01*
%TO.N,Net-(D3-DOUT)*%
X190878000Y-103829700D02*
X190878000Y-87104400D01*
X194868400Y-107820100D02*
X190878000Y-103829700D01*
%TO.N,SCL*%
X203582800Y-84720100D02*
X203200000Y-85102900D01*
X203200000Y-85102900D02*
X203200000Y-90170000D01*
X87880000Y-86209900D02*
X88517200Y-85572700D01*
X87880000Y-94725000D02*
X87880000Y-86209900D01*
%TO.N,S3*%
X200660000Y-97305000D02*
X197682000Y-94327000D01*
X200660000Y-105410000D02*
X200660000Y-97305000D01*
%TO.N,EN1*%
X212246200Y-109495200D02*
X210455400Y-111286000D01*
X212246200Y-91283800D02*
X212246200Y-109495200D01*
X213360000Y-90170000D02*
X212246200Y-91283800D01*
%TO.N,EN2*%
X89130000Y-105961700D02*
X88786700Y-106305000D01*
X90426800Y-89138800D02*
X89130000Y-90435600D01*
X89130000Y-90435600D02*
X89130000Y-105961700D01*
X87620000Y-106305000D02*
X88786700Y-106305000D01*
%TO.N,Net-(J2-Pin_1)*%
X82558300Y-144596600D02*
X83860000Y-145898300D01*
X82643300Y-124085000D02*
X82558300Y-124170000D01*
X83810000Y-124085000D02*
X82643300Y-124085000D01*
X83860000Y-147200000D02*
X83860000Y-145898300D01*
X82558300Y-124170000D02*
X82558300Y-144596600D01*
%TO.N,Net-(J2-Pin_3)*%
X88890000Y-124085000D02*
X90056700Y-124085000D01*
X90216200Y-145843800D02*
X88860000Y-147200000D01*
X90056700Y-124085000D02*
X90216200Y-124244500D01*
X90216200Y-124244500D02*
X90216200Y-145843800D01*
%TO.N,Net-(J2-Pin_2)*%
X86350000Y-133371300D02*
X86350000Y-124085000D01*
X86360000Y-147200000D02*
X84709300Y-145549300D01*
X84709300Y-145549300D02*
X84709300Y-135012000D01*
X84709300Y-135012000D02*
X86350000Y-133371300D01*
%TD*%
%TA.AperFunction,Conductor*%
%TO.N,GND*%
G36*
X94128750Y-123413424D02*
G01*
X94147993Y-123444049D01*
X94285371Y-123616315D01*
X94314979Y-123653444D01*
X94332138Y-123674960D01*
X94540979Y-123883801D01*
X94771890Y-124067946D01*
X95021967Y-124225079D01*
X95288064Y-124353225D01*
X95288070Y-124353227D01*
X95566824Y-124450768D01*
X95566836Y-124450772D01*
X95854777Y-124516492D01*
X96148261Y-124549560D01*
X96148262Y-124549561D01*
X96148266Y-124549561D01*
X96443616Y-124549561D01*
X96443616Y-124549560D01*
X96737101Y-124516492D01*
X97025042Y-124450772D01*
X97303814Y-124353225D01*
X97569911Y-124225079D01*
X97819988Y-124067946D01*
X98050899Y-123883801D01*
X98259740Y-123674960D01*
X98259746Y-123674953D01*
X98338553Y-123576132D01*
X98395741Y-123535991D01*
X98465552Y-123533141D01*
X98525822Y-123568486D01*
X98557416Y-123630805D01*
X98559500Y-123653444D01*
X98559500Y-124404050D01*
X94600000Y-124800000D01*
X94073247Y-123325092D01*
X94128750Y-123413424D01*
G37*
%TD.AperFunction*%
%TA.AperFunction,Conductor*%
G36*
X93666378Y-122067677D02*
G01*
X93685830Y-122240325D01*
X93600000Y-122000000D01*
X93666378Y-121886209D01*
X93666378Y-122067677D01*
G37*
%TD.AperFunction*%
%TA.AperFunction,Conductor*%
G36*
X98452178Y-120304357D02*
G01*
X98417853Y-120309293D01*
X98354297Y-120280268D01*
X98338553Y-120263868D01*
X98259740Y-120165040D01*
X98070767Y-119976067D01*
X98037282Y-119914744D01*
X98042266Y-119845052D01*
X98068899Y-119802613D01*
X98081129Y-119789844D01*
X98097314Y-119780500D01*
X98159271Y-119718542D01*
X98452178Y-120304357D01*
G37*
%TD.AperFunction*%
%TD*%
%TA.AperFunction,Conductor*%
%TO.N,GND*%
G36*
X80813609Y-115376810D02*
G01*
X80813609Y-115376811D01*
X80813608Y-115376813D01*
X80813608Y-115376814D01*
X80779500Y-115504108D01*
X80779500Y-119445892D01*
X80781557Y-119453569D01*
X80813608Y-119573187D01*
X80846554Y-119630250D01*
X80879500Y-119687314D01*
X80972686Y-119780500D01*
X80972687Y-119780501D01*
X80972689Y-119780502D01*
X80998225Y-119795245D01*
X80998182Y-119800000D01*
X80468843Y-119800000D01*
X80422750Y-119666094D01*
X80441533Y-119633561D01*
X80473369Y-119580327D01*
X80474437Y-119576571D01*
X80476392Y-119573186D01*
X80492243Y-119514023D01*
X80492667Y-119512486D01*
X80509429Y-119453572D01*
X80509429Y-119453568D01*
X80509589Y-119452484D01*
X80510127Y-119448832D01*
X80510127Y-119448830D01*
X80510131Y-119448806D01*
X80510315Y-119447553D01*
X80510359Y-119446957D01*
X80510498Y-119445897D01*
X80510500Y-119445892D01*
X80510500Y-119383846D01*
X80511453Y-119321803D01*
X80510500Y-119318014D01*
X80510500Y-119314108D01*
X80494680Y-119255067D01*
X80494212Y-119253266D01*
X80400191Y-118879500D01*
X79815692Y-116555923D01*
X79812917Y-116527521D01*
X79799684Y-116492283D01*
X79790504Y-116455789D01*
X79776618Y-116430862D01*
X79766587Y-116404149D01*
X79744690Y-116373544D01*
X79741282Y-116367426D01*
X79741281Y-116367425D01*
X79726374Y-116340663D01*
X79712951Y-116326821D01*
X79701123Y-116312649D01*
X79689911Y-116296978D01*
X79689908Y-116296975D01*
X79689906Y-116296972D01*
X79677921Y-116287121D01*
X79666236Y-116277516D01*
X79666236Y-116277517D01*
X79660828Y-116273072D01*
X79634630Y-116246056D01*
X79610140Y-116231410D01*
X79588097Y-116213293D01*
X79588095Y-116213292D01*
X79560193Y-116200624D01*
X79560193Y-116200623D01*
X79553818Y-116197729D01*
X79521527Y-116178419D01*
X79494089Y-116170613D01*
X79485659Y-116166786D01*
X79485657Y-116166785D01*
X79468105Y-116158816D01*
X79468101Y-116158815D01*
X79450812Y-116155947D01*
X79437875Y-116153801D01*
X79424242Y-116150741D01*
X79409681Y-116146599D01*
X79375232Y-116124870D01*
X80856990Y-115301671D01*
X80813609Y-115376810D01*
G37*
%TD.AperFunction*%
%TD*%
%TA.AperFunction,Conductor*%
%TO.N,GND*%
G36*
X80468843Y-119800000D02*
G01*
X80998182Y-119800000D01*
X80998225Y-119795245D01*
X81086814Y-119846392D01*
X81214108Y-119880500D01*
X81345892Y-119880500D01*
X94317316Y-119880500D01*
X94384355Y-119900185D01*
X94430110Y-119952989D01*
X94440054Y-120022147D01*
X94411029Y-120085703D01*
X94404997Y-120092181D01*
X94332137Y-120165040D01*
X94147992Y-120395952D01*
X93990858Y-120646030D01*
X93862717Y-120912117D01*
X93862711Y-120912131D01*
X93765170Y-121190885D01*
X93765166Y-121190897D01*
X93699447Y-121478834D01*
X93699445Y-121478850D01*
X93666378Y-121772322D01*
X93666378Y-121886209D01*
X93600000Y-122000000D01*
X93685831Y-122240328D01*
X93699445Y-122361149D01*
X93699447Y-122361165D01*
X93765166Y-122649102D01*
X93765170Y-122649114D01*
X93862711Y-122927868D01*
X93862717Y-122927882D01*
X93990858Y-123193969D01*
X93990860Y-123193972D01*
X94073246Y-123325089D01*
X94600000Y-124800000D01*
X98559500Y-124404050D01*
X98559500Y-146856555D01*
X98539815Y-146923594D01*
X98487011Y-146969349D01*
X98417853Y-146979293D01*
X98354297Y-146950268D01*
X98338553Y-146933868D01*
X98259740Y-146835040D01*
X98050898Y-146626198D01*
X97992254Y-146579432D01*
X97819988Y-146442054D01*
X97632616Y-146324321D01*
X97569908Y-146284919D01*
X97303821Y-146156778D01*
X97303807Y-146156772D01*
X97025053Y-146059231D01*
X97025041Y-146059227D01*
X96737104Y-145993508D01*
X96737088Y-145993506D01*
X96443616Y-145960439D01*
X96443612Y-145960439D01*
X96148266Y-145960439D01*
X96148262Y-145960439D01*
X95854789Y-145993506D01*
X95854773Y-145993508D01*
X95566836Y-146059227D01*
X95566824Y-146059231D01*
X95288070Y-146156772D01*
X95288056Y-146156778D01*
X95021969Y-146284919D01*
X94771891Y-146442053D01*
X94540979Y-146626198D01*
X94332137Y-146835040D01*
X94147992Y-147065952D01*
X93990858Y-147316030D01*
X93862717Y-147582117D01*
X93862711Y-147582131D01*
X93765170Y-147860885D01*
X93765166Y-147860897D01*
X93699447Y-148148834D01*
X93699445Y-148148850D01*
X93666378Y-148442322D01*
X93666378Y-148737677D01*
X93699445Y-149031149D01*
X93699447Y-149031165D01*
X93765166Y-149319102D01*
X93765170Y-149319114D01*
X93862711Y-149597868D01*
X93862717Y-149597882D01*
X93990858Y-149863969D01*
X93990860Y-149863972D01*
X94147993Y-150114049D01*
X94183133Y-150158113D01*
X94332137Y-150344959D01*
X94404997Y-150417819D01*
X94438482Y-150479142D01*
X94433498Y-150548834D01*
X94391626Y-150604767D01*
X94326162Y-150629184D01*
X94317316Y-150629500D01*
X77319562Y-150629500D01*
X77252523Y-150609815D01*
X77206768Y-150557011D01*
X77196824Y-150487853D01*
X77225849Y-150424297D01*
X77231881Y-150417819D01*
X77304740Y-150344960D01*
X77488885Y-150114049D01*
X77646018Y-149863972D01*
X77774164Y-149597875D01*
X77871711Y-149319103D01*
X77937431Y-149031162D01*
X77970500Y-148737673D01*
X77970500Y-148442327D01*
X77937431Y-148148838D01*
X77871711Y-147860897D01*
X77774164Y-147582125D01*
X77646018Y-147316028D01*
X77488885Y-147065951D01*
X77304740Y-146835040D01*
X77095899Y-146626199D01*
X76864988Y-146442054D01*
X76677616Y-146324321D01*
X76614908Y-146284919D01*
X76348821Y-146156778D01*
X76348807Y-146156772D01*
X76070053Y-146059231D01*
X76070041Y-146059227D01*
X75782104Y-145993508D01*
X75782088Y-145993506D01*
X75488616Y-145960439D01*
X75488612Y-145960439D01*
X75193266Y-145960439D01*
X75193262Y-145960439D01*
X74899789Y-145993506D01*
X74899773Y-145993508D01*
X74611836Y-146059227D01*
X74611824Y-146059231D01*
X74333070Y-146156772D01*
X74333056Y-146156778D01*
X74066969Y-146284919D01*
X73816891Y-146442053D01*
X73585979Y-146626198D01*
X73377137Y-146835040D01*
X73192992Y-147065952D01*
X73119494Y-147182924D01*
X73067159Y-147229215D01*
X72998106Y-147239863D01*
X72934257Y-147211488D01*
X72895885Y-147153099D01*
X72890500Y-147116952D01*
X72890500Y-138052135D01*
X79259500Y-138052135D01*
X79259500Y-141347870D01*
X79259501Y-141347876D01*
X79265908Y-141407483D01*
X79316202Y-141542328D01*
X79316206Y-141542335D01*
X79402452Y-141657544D01*
X79402455Y-141657547D01*
X79517664Y-141743793D01*
X79517671Y-141743797D01*
X79652517Y-141794091D01*
X79652516Y-141794091D01*
X79659444Y-141794835D01*
X79712127Y-141800500D01*
X81807872Y-141800499D01*
X81807878Y-141800498D01*
X81807882Y-141800498D01*
X81820542Y-141799137D01*
X81889302Y-141811541D01*
X81940440Y-141859150D01*
X81957800Y-141922426D01*
X81957800Y-144509930D01*
X81957799Y-144509948D01*
X81957799Y-144675654D01*
X81957798Y-144675654D01*
X81998723Y-144828385D01*
X82027658Y-144878500D01*
X82027659Y-144878504D01*
X82027660Y-144878504D01*
X82077779Y-144965314D01*
X82077781Y-144965317D01*
X82196649Y-145084185D01*
X82196655Y-145084190D01*
X82664048Y-145551583D01*
X82697533Y-145612906D01*
X82692549Y-145682598D01*
X82650677Y-145738531D01*
X82619701Y-145755446D01*
X82617669Y-145756203D01*
X82617664Y-145756206D01*
X82502455Y-145842452D01*
X82502452Y-145842455D01*
X82416206Y-145957664D01*
X82416202Y-145957671D01*
X82365908Y-146092517D01*
X82359501Y-146152116D01*
X82359500Y-146152135D01*
X82359500Y-148247870D01*
X82359501Y-148247876D01*
X82365908Y-148307483D01*
X82416202Y-148442328D01*
X82416206Y-148442335D01*
X82502452Y-148557544D01*
X82502455Y-148557547D01*
X82617664Y-148643793D01*
X82617671Y-148643797D01*
X82752517Y-148694091D01*
X82752516Y-148694091D01*
X82759444Y-148694835D01*
X82812127Y-148700500D01*
X84907872Y-148700499D01*
X84967483Y-148694091D01*
X85102331Y-148643796D01*
X85217546Y-148557546D01*
X85303796Y-148442331D01*
X85303796Y-148442328D01*
X85305689Y-148439801D01*
X85361623Y-148397930D01*
X85431315Y-148392946D01*
X85477840Y-148413793D01*
X85573567Y-148483343D01*
X85672991Y-148534002D01*
X85784003Y-148590566D01*
X85784005Y-148590566D01*
X85784008Y-148590568D01*
X85904412Y-148629689D01*
X86008631Y-148663553D01*
X86241903Y-148700500D01*
X86241908Y-148700500D01*
X86478097Y-148700500D01*
X86711368Y-148663553D01*
X86935992Y-148590568D01*
X87146433Y-148483343D01*
X87337510Y-148344517D01*
X87504517Y-148177510D01*
X87509682Y-148170401D01*
X87565012Y-148127735D01*
X87634625Y-148121756D01*
X87696420Y-148154362D01*
X87710318Y-148170401D01*
X87715483Y-148177510D01*
X87882490Y-148344517D01*
X88073567Y-148483343D01*
X88172991Y-148534002D01*
X88284003Y-148590566D01*
X88284005Y-148590566D01*
X88284008Y-148590568D01*
X88404412Y-148629689D01*
X88508631Y-148663553D01*
X88741903Y-148700500D01*
X88741908Y-148700500D01*
X88978097Y-148700500D01*
X89211368Y-148663553D01*
X89435992Y-148590568D01*
X89646433Y-148483343D01*
X89837510Y-148344517D01*
X90004517Y-148177510D01*
X90143343Y-147986433D01*
X90250568Y-147775992D01*
X90323553Y-147551368D01*
X90355188Y-147351633D01*
X90360500Y-147318097D01*
X90360500Y-147081902D01*
X90335426Y-146923594D01*
X90323553Y-146848632D01*
X90282547Y-146722433D01*
X90280553Y-146652593D01*
X90312796Y-146596437D01*
X90574706Y-146334528D01*
X90574711Y-146334524D01*
X90584914Y-146324320D01*
X90584916Y-146324320D01*
X90696720Y-146212516D01*
X90775777Y-146075584D01*
X90816700Y-145922857D01*
X90816700Y-141924499D01*
X90836385Y-141857460D01*
X90889189Y-141811705D01*
X90940695Y-141800499D01*
X93007872Y-141800499D01*
X93067483Y-141794091D01*
X93202331Y-141743796D01*
X93317546Y-141657546D01*
X93403796Y-141542331D01*
X93454091Y-141407483D01*
X93460500Y-141347873D01*
X93460499Y-138052128D01*
X93454091Y-137992517D01*
X93403796Y-137857669D01*
X93403795Y-137857668D01*
X93403793Y-137857664D01*
X93317547Y-137742455D01*
X93317544Y-137742452D01*
X93202335Y-137656206D01*
X93202328Y-137656202D01*
X93067482Y-137605908D01*
X93067483Y-137605908D01*
X93007883Y-137599501D01*
X93007881Y-137599500D01*
X93007873Y-137599500D01*
X93007865Y-137599500D01*
X90940700Y-137599500D01*
X90873661Y-137579815D01*
X90827906Y-137527011D01*
X90816700Y-137475500D01*
X90816700Y-124165445D01*
X90816700Y-124165443D01*
X90775777Y-124012716D01*
X90775777Y-124012715D01*
X90732764Y-123938215D01*
X90696720Y-123875784D01*
X90584916Y-123763980D01*
X90580585Y-123759649D01*
X90580574Y-123759639D01*
X90544290Y-123723355D01*
X90544288Y-123723352D01*
X90425417Y-123604481D01*
X90425409Y-123604475D01*
X90327235Y-123547795D01*
X90327232Y-123547793D01*
X90319866Y-123543541D01*
X90288485Y-123525423D01*
X90241101Y-123512726D01*
X90233922Y-123509803D01*
X90212404Y-123492677D01*
X90188926Y-123478366D01*
X90184204Y-123470231D01*
X90179254Y-123466292D01*
X90175500Y-123455238D01*
X90162750Y-123433273D01*
X90155458Y-123410830D01*
X90155457Y-123410829D01*
X90155457Y-123410827D01*
X90067315Y-123237840D01*
X90057880Y-123219322D01*
X89931545Y-123045437D01*
X89779563Y-122893455D01*
X89605678Y-122767120D01*
X89414170Y-122669541D01*
X89414167Y-122669540D01*
X89209757Y-122603124D01*
X89068229Y-122580708D01*
X88997467Y-122569500D01*
X88782533Y-122569500D01*
X88711770Y-122580708D01*
X88570243Y-122603124D01*
X88570240Y-122603124D01*
X88365832Y-122669540D01*
X88365829Y-122669541D01*
X88174321Y-122767120D01*
X88090981Y-122827671D01*
X88000437Y-122893455D01*
X88000435Y-122893457D01*
X88000434Y-122893457D01*
X87848457Y-123045434D01*
X87848457Y-123045435D01*
X87848455Y-123045437D01*
X87751023Y-123179539D01*
X87720318Y-123221802D01*
X87664988Y-123264467D01*
X87595374Y-123270446D01*
X87533579Y-123237840D01*
X87519682Y-123221802D01*
X87499460Y-123193969D01*
X87391545Y-123045437D01*
X87239563Y-122893455D01*
X87065678Y-122767120D01*
X86874170Y-122669541D01*
X86874167Y-122669540D01*
X86669757Y-122603124D01*
X86528229Y-122580708D01*
X86457467Y-122569500D01*
X86242533Y-122569500D01*
X86171770Y-122580708D01*
X86030243Y-122603124D01*
X86030240Y-122603124D01*
X85825832Y-122669540D01*
X85825829Y-122669541D01*
X85634321Y-122767120D01*
X85460438Y-122893454D01*
X85365910Y-122987982D01*
X85304586Y-123021466D01*
X85234895Y-123016482D01*
X85178962Y-122974610D01*
X85162047Y-122943632D01*
X85118798Y-122827673D01*
X85118793Y-122827664D01*
X85032547Y-122712455D01*
X85032544Y-122712452D01*
X84917335Y-122626206D01*
X84917328Y-122626202D01*
X84782482Y-122575908D01*
X84782483Y-122575908D01*
X84722883Y-122569501D01*
X84722881Y-122569500D01*
X84722873Y-122569500D01*
X84722864Y-122569500D01*
X82897129Y-122569500D01*
X82897123Y-122569501D01*
X82837516Y-122575908D01*
X82702671Y-122626202D01*
X82702664Y-122626206D01*
X82587455Y-122712452D01*
X82587452Y-122712455D01*
X82501206Y-122827664D01*
X82501202Y-122827671D01*
X82450908Y-122962517D01*
X82444501Y-123022116D01*
X82444500Y-123022135D01*
X82444500Y-123434788D01*
X82441117Y-123446305D01*
X82442259Y-123458256D01*
X82431455Y-123479211D01*
X82424815Y-123501827D01*
X82414944Y-123511238D01*
X82410243Y-123520358D01*
X82382500Y-123542175D01*
X82380134Y-123543541D01*
X82380132Y-123543541D01*
X82274590Y-123604475D01*
X82274582Y-123604481D01*
X82077781Y-123801282D01*
X82077777Y-123801287D01*
X82034768Y-123875783D01*
X82034768Y-123875784D01*
X81998723Y-123938214D01*
X81998723Y-123938215D01*
X81957799Y-124090943D01*
X81957799Y-124090945D01*
X81957799Y-124259046D01*
X81957800Y-124259059D01*
X81957800Y-137477573D01*
X81938115Y-137544612D01*
X81885311Y-137590367D01*
X81820548Y-137600862D01*
X81807873Y-137599500D01*
X81807867Y-137599500D01*
X79712129Y-137599500D01*
X79712123Y-137599501D01*
X79652516Y-137605908D01*
X79517671Y-137656202D01*
X79517664Y-137656206D01*
X79402455Y-137742452D01*
X79402452Y-137742455D01*
X79316206Y-137857664D01*
X79316202Y-137857671D01*
X79265908Y-137992517D01*
X79259501Y-138052116D01*
X79259501Y-138052123D01*
X79259500Y-138052135D01*
X72890500Y-138052135D01*
X72890500Y-136387410D01*
X72890503Y-136386561D01*
X72897862Y-135312096D01*
X72981113Y-123157444D01*
X73001256Y-123090543D01*
X73054372Y-123045150D01*
X73123597Y-123035681D01*
X73186953Y-123065140D01*
X73216830Y-123104493D01*
X73259919Y-123193969D01*
X73259921Y-123193972D01*
X73417054Y-123444049D01*
X73544989Y-123604475D01*
X73584040Y-123653444D01*
X73601199Y-123674960D01*
X73810040Y-123883801D01*
X74040951Y-124067946D01*
X74291028Y-124225079D01*
X74557125Y-124353225D01*
X74557131Y-124353227D01*
X74835885Y-124450768D01*
X74835897Y-124450772D01*
X75123838Y-124516492D01*
X75417322Y-124549560D01*
X75417323Y-124549561D01*
X75417327Y-124549561D01*
X75712677Y-124549561D01*
X75712677Y-124549560D01*
X76006162Y-124516492D01*
X76294103Y-124450772D01*
X76572875Y-124353225D01*
X76838972Y-124225079D01*
X77089049Y-124067946D01*
X77319960Y-123883801D01*
X77528801Y-123674960D01*
X77712946Y-123444049D01*
X77870079Y-123193972D01*
X77998225Y-122927875D01*
X78095772Y-122649103D01*
X78161492Y-122361162D01*
X78194561Y-122067673D01*
X78194561Y-121772327D01*
X78161492Y-121478838D01*
X78095772Y-121190897D01*
X77998225Y-120912125D01*
X77870079Y-120646028D01*
X77712946Y-120395951D01*
X77528801Y-120165040D01*
X77455942Y-120092181D01*
X77422457Y-120030858D01*
X77427441Y-119961166D01*
X77469313Y-119905233D01*
X77534777Y-119880816D01*
X77543623Y-119880500D01*
X80006153Y-119880500D01*
X80068196Y-119881453D01*
X80071984Y-119880500D01*
X80075892Y-119880500D01*
X80134936Y-119864679D01*
X80134937Y-119864679D01*
X80135857Y-119864432D01*
X80195999Y-119849304D01*
X80199407Y-119847404D01*
X80203175Y-119846395D01*
X80203175Y-119846394D01*
X80203186Y-119846392D01*
X80256266Y-119815745D01*
X80257664Y-119814952D01*
X80311126Y-119785173D01*
X80311131Y-119785167D01*
X80311988Y-119784532D01*
X80314957Y-119782325D01*
X80314990Y-119782300D01*
X80316029Y-119781527D01*
X80316474Y-119781143D01*
X80317303Y-119780505D01*
X80317314Y-119780500D01*
X80360557Y-119737255D01*
X80361783Y-119736047D01*
X80405732Y-119693430D01*
X80405737Y-119693420D01*
X80406394Y-119692593D01*
X80406405Y-119692579D01*
X80408744Y-119689626D01*
X80408744Y-119689625D01*
X80409518Y-119688647D01*
X80409850Y-119688160D01*
X80410493Y-119687320D01*
X80410500Y-119687314D01*
X80422750Y-119666094D01*
X80468843Y-119800000D01*
G37*
%TD.AperFunction*%
%TA.AperFunction,Conductor*%
G36*
X84576757Y-81909011D02*
G01*
X84577203Y-81909018D01*
X84577203Y-81909067D01*
X84577416Y-81909022D01*
X194433398Y-83821461D01*
X194500083Y-83842309D01*
X194544912Y-83895902D01*
X194553650Y-83965223D01*
X194523523Y-84028264D01*
X194478691Y-84060003D01*
X194352423Y-84112304D01*
X194352414Y-84112309D01*
X194221311Y-84199910D01*
X194221307Y-84199913D01*
X194109813Y-84311407D01*
X194109810Y-84311411D01*
X194022209Y-84442514D01*
X194022202Y-84442527D01*
X193961864Y-84588198D01*
X193961861Y-84588210D01*
X193931100Y-84742853D01*
X193931100Y-84900546D01*
X193961861Y-85055189D01*
X193961864Y-85055201D01*
X194022202Y-85200872D01*
X194022209Y-85200885D01*
X194110202Y-85332574D01*
X194131080Y-85399251D01*
X194131100Y-85401465D01*
X194131100Y-86694930D01*
X194131099Y-86694948D01*
X194131099Y-86860654D01*
X194131098Y-86860654D01*
X194172002Y-87013309D01*
X194172023Y-87013385D01*
X194190629Y-87045611D01*
X194251079Y-87150314D01*
X194251081Y-87150317D01*
X194369949Y-87269185D01*
X194369955Y-87269190D01*
X196856237Y-89755472D01*
X196889722Y-89816795D01*
X196889160Y-89869522D01*
X196889349Y-89869552D01*
X196889146Y-89870831D01*
X196889133Y-89872087D01*
X196888587Y-89874360D01*
X196857500Y-90070639D01*
X196857500Y-90269360D01*
X196888587Y-90465637D01*
X196949993Y-90654629D01*
X196949994Y-90654632D01*
X197040213Y-90831694D01*
X197157019Y-90992464D01*
X197297536Y-91132981D01*
X197458306Y-91249787D01*
X197545149Y-91294035D01*
X197635367Y-91340005D01*
X197635370Y-91340006D01*
X197674039Y-91352570D01*
X197824364Y-91401413D01*
X198020639Y-91432500D01*
X198020640Y-91432500D01*
X198219360Y-91432500D01*
X198219361Y-91432500D01*
X198415636Y-91401413D01*
X198604632Y-91340005D01*
X198781694Y-91249787D01*
X198942464Y-91132981D01*
X199082981Y-90992464D01*
X199199787Y-90831694D01*
X199279515Y-90675218D01*
X199327490Y-90624423D01*
X199395311Y-90607628D01*
X199461446Y-90630165D01*
X199500484Y-90675218D01*
X199580213Y-90831694D01*
X199697019Y-90992464D01*
X199837536Y-91132981D01*
X199998306Y-91249787D01*
X200085149Y-91294035D01*
X200175367Y-91340005D01*
X200175370Y-91340006D01*
X200214039Y-91352570D01*
X200364364Y-91401413D01*
X200560639Y-91432500D01*
X200560640Y-91432500D01*
X200759360Y-91432500D01*
X200759361Y-91432500D01*
X200955636Y-91401413D01*
X201144632Y-91340005D01*
X201321694Y-91249787D01*
X201482464Y-91132981D01*
X201622981Y-90992464D01*
X201739787Y-90831694D01*
X201819515Y-90675218D01*
X201867490Y-90624423D01*
X201935311Y-90607628D01*
X202001446Y-90630165D01*
X202040484Y-90675218D01*
X202120213Y-90831694D01*
X202237019Y-90992464D01*
X202377536Y-91132981D01*
X202538306Y-91249787D01*
X202625149Y-91294035D01*
X202715367Y-91340005D01*
X202715370Y-91340006D01*
X202754039Y-91352570D01*
X202904364Y-91401413D01*
X203100639Y-91432500D01*
X203100640Y-91432500D01*
X203299360Y-91432500D01*
X203299361Y-91432500D01*
X203495636Y-91401413D01*
X203684632Y-91340005D01*
X203861694Y-91249787D01*
X204022464Y-91132981D01*
X204162981Y-90992464D01*
X204279787Y-90831694D01*
X204359515Y-90675218D01*
X204407490Y-90624423D01*
X204475311Y-90607628D01*
X204541446Y-90630165D01*
X204580484Y-90675218D01*
X204660213Y-90831694D01*
X204777019Y-90992464D01*
X204917536Y-91132981D01*
X205078306Y-91249787D01*
X205165149Y-91294035D01*
X205255367Y-91340005D01*
X205255370Y-91340006D01*
X205294039Y-91352570D01*
X205444364Y-91401413D01*
X205640639Y-91432500D01*
X205640640Y-91432500D01*
X205839360Y-91432500D01*
X205839361Y-91432500D01*
X206035636Y-91401413D01*
X206224632Y-91340005D01*
X206401694Y-91249787D01*
X206562464Y-91132981D01*
X206702981Y-90992464D01*
X206819787Y-90831694D01*
X206899515Y-90675218D01*
X206947490Y-90624423D01*
X207015311Y-90607628D01*
X207081446Y-90630165D01*
X207120484Y-90675218D01*
X207200213Y-90831694D01*
X207317019Y-90992464D01*
X207457536Y-91132981D01*
X207618306Y-91249787D01*
X207705149Y-91294035D01*
X207795367Y-91340005D01*
X207795370Y-91340006D01*
X207834039Y-91352570D01*
X207984364Y-91401413D01*
X208180639Y-91432500D01*
X208180640Y-91432500D01*
X208379360Y-91432500D01*
X208379361Y-91432500D01*
X208575636Y-91401413D01*
X208764632Y-91340005D01*
X208941694Y-91249787D01*
X209102464Y-91132981D01*
X209242981Y-90992464D01*
X209359787Y-90831694D01*
X209439515Y-90675218D01*
X209487490Y-90624423D01*
X209555311Y-90607628D01*
X209621446Y-90630165D01*
X209660484Y-90675218D01*
X209740213Y-90831694D01*
X209857019Y-90992464D01*
X209997536Y-91132981D01*
X210158306Y-91249787D01*
X210245149Y-91294035D01*
X210335367Y-91340005D01*
X210335370Y-91340006D01*
X210374039Y-91352570D01*
X210524364Y-91401413D01*
X210720639Y-91432500D01*
X210720640Y-91432500D01*
X210919360Y-91432500D01*
X210919361Y-91432500D01*
X211115636Y-91401413D01*
X211304632Y-91340005D01*
X211465404Y-91258086D01*
X211468094Y-91257581D01*
X211470161Y-91255790D01*
X211502224Y-91251172D01*
X211534073Y-91245191D01*
X211536608Y-91246220D01*
X211539317Y-91245830D01*
X211568793Y-91259282D01*
X211598813Y-91271467D01*
X211600389Y-91273703D01*
X211602880Y-91274840D01*
X211620404Y-91302093D01*
X211639071Y-91328573D01*
X211639641Y-91332012D01*
X211640668Y-91333609D01*
X211643396Y-91352570D01*
X211644012Y-91352468D01*
X211644013Y-91352474D01*
X211644866Y-91362785D01*
X211645667Y-91368352D01*
X211645699Y-91368543D01*
X211645700Y-91372830D01*
X211645699Y-91372833D01*
X211645699Y-91372846D01*
X211645700Y-91372859D01*
X211645700Y-104211989D01*
X211626015Y-104279028D01*
X211573211Y-104324783D01*
X211504053Y-104334727D01*
X211465406Y-104322474D01*
X211304440Y-104240458D01*
X211115522Y-104179075D01*
X210919321Y-104148000D01*
X210720679Y-104148000D01*
X210524479Y-104179075D01*
X210524476Y-104179075D01*
X210335562Y-104240457D01*
X210158564Y-104330643D01*
X210121283Y-104357729D01*
X210121282Y-104357730D01*
X210735905Y-104972352D01*
X210648429Y-104995792D01*
X210547070Y-105054311D01*
X210464311Y-105137070D01*
X210405792Y-105238429D01*
X210382352Y-105325905D01*
X209767730Y-104711282D01*
X209767729Y-104711283D01*
X209740641Y-104748566D01*
X209660764Y-104905332D01*
X209612790Y-104956127D01*
X209544969Y-104972922D01*
X209478834Y-104950384D01*
X209439796Y-104905332D01*
X209359787Y-104748306D01*
X209242981Y-104587536D01*
X209102464Y-104447019D01*
X208941694Y-104330213D01*
X208931037Y-104324783D01*
X208764632Y-104239994D01*
X208764629Y-104239993D01*
X208575637Y-104178587D01*
X208473960Y-104162483D01*
X208379361Y-104147500D01*
X208180639Y-104147500D01*
X208115214Y-104157862D01*
X207984362Y-104178587D01*
X207795370Y-104239993D01*
X207795367Y-104239994D01*
X207618305Y-104330213D01*
X207457533Y-104447021D01*
X207317021Y-104587533D01*
X207200213Y-104748305D01*
X207120485Y-104904780D01*
X207072510Y-104955576D01*
X207004689Y-104972371D01*
X206938554Y-104949833D01*
X206899515Y-104904780D01*
X206844042Y-104795909D01*
X206819787Y-104748306D01*
X206702981Y-104587536D01*
X206562464Y-104447019D01*
X206401694Y-104330213D01*
X206391037Y-104324783D01*
X206224632Y-104239994D01*
X206224629Y-104239993D01*
X206035637Y-104178587D01*
X205933960Y-104162483D01*
X205839361Y-104147500D01*
X205640639Y-104147500D01*
X205575214Y-104157862D01*
X205444362Y-104178587D01*
X205255370Y-104239993D01*
X205255367Y-104239994D01*
X205078305Y-104330213D01*
X204917533Y-104447021D01*
X204777021Y-104587533D01*
X204660213Y-104748305D01*
X204580485Y-104904780D01*
X204532510Y-104955576D01*
X204464689Y-104972371D01*
X204398554Y-104949833D01*
X204359515Y-104904780D01*
X204304042Y-104795909D01*
X204279787Y-104748306D01*
X204162981Y-104587536D01*
X204022464Y-104447019D01*
X203861694Y-104330213D01*
X203851037Y-104324783D01*
X203684632Y-104239994D01*
X203684629Y-104239993D01*
X203495637Y-104178587D01*
X203393960Y-104162483D01*
X203299361Y-104147500D01*
X203100639Y-104147500D01*
X203035214Y-104157862D01*
X202904362Y-104178587D01*
X202715370Y-104239993D01*
X202715367Y-104239994D01*
X202538305Y-104330213D01*
X202377533Y-104447021D01*
X202237021Y-104587533D01*
X202120213Y-104748305D01*
X202040485Y-104904780D01*
X201992510Y-104955576D01*
X201924689Y-104972371D01*
X201858554Y-104949833D01*
X201819515Y-104904780D01*
X201764042Y-104795909D01*
X201739787Y-104748306D01*
X201622981Y-104587536D01*
X201482464Y-104447019D01*
X201321694Y-104330213D01*
X201321690Y-104330210D01*
X201319715Y-104329000D01*
X201319121Y-104328343D01*
X201317752Y-104327349D01*
X201317960Y-104327061D01*
X201272837Y-104277190D01*
X201260500Y-104223270D01*
X201260500Y-97394059D01*
X201260501Y-97394046D01*
X201260501Y-97225945D01*
X201260501Y-97225943D01*
X201219577Y-97073215D01*
X201161765Y-96973082D01*
X201140520Y-96936284D01*
X201028716Y-96824480D01*
X201028713Y-96824478D01*
X198516574Y-94312339D01*
X198483089Y-94251016D01*
X198482638Y-94248849D01*
X198451738Y-94093510D01*
X198451737Y-94093503D01*
X198446802Y-94081588D01*
X198391397Y-93947827D01*
X198391390Y-93947814D01*
X198303789Y-93816711D01*
X198303786Y-93816707D01*
X198192292Y-93705213D01*
X198192288Y-93705210D01*
X198061185Y-93617609D01*
X198061172Y-93617602D01*
X197915501Y-93557264D01*
X197915489Y-93557261D01*
X197760845Y-93526500D01*
X197760842Y-93526500D01*
X197603158Y-93526500D01*
X197603155Y-93526500D01*
X197448510Y-93557261D01*
X197448498Y-93557264D01*
X197302827Y-93617602D01*
X197302814Y-93617609D01*
X197171711Y-93705210D01*
X197171707Y-93705213D01*
X197060213Y-93816707D01*
X197060210Y-93816711D01*
X196972609Y-93947814D01*
X196972602Y-93947827D01*
X196912264Y-94093498D01*
X196912261Y-94093510D01*
X196881500Y-94248153D01*
X196881500Y-94405846D01*
X196912261Y-94560489D01*
X196912264Y-94560501D01*
X196972602Y-94706172D01*
X196972609Y-94706185D01*
X197060210Y-94837288D01*
X197060213Y-94837292D01*
X197171707Y-94948786D01*
X197171711Y-94948789D01*
X197302814Y-95036390D01*
X197302827Y-95036397D01*
X197448498Y-95096735D01*
X197448503Y-95096737D01*
X197513147Y-95109595D01*
X197603849Y-95127638D01*
X197665760Y-95160023D01*
X197667339Y-95161574D01*
X200023181Y-97517416D01*
X200056666Y-97578739D01*
X200059500Y-97605097D01*
X200059500Y-104223270D01*
X200039815Y-104290309D01*
X200002133Y-104327191D01*
X200002248Y-104327349D01*
X200001176Y-104328127D01*
X200000285Y-104329000D01*
X199998309Y-104330210D01*
X199837533Y-104447021D01*
X199697021Y-104587533D01*
X199580213Y-104748305D01*
X199500485Y-104904780D01*
X199452510Y-104955576D01*
X199384689Y-104972371D01*
X199318554Y-104949833D01*
X199279515Y-104904780D01*
X199224042Y-104795909D01*
X199199787Y-104748306D01*
X199082981Y-104587536D01*
X198942464Y-104447019D01*
X198781694Y-104330213D01*
X198771037Y-104324783D01*
X198604632Y-104239994D01*
X198604629Y-104239993D01*
X198415637Y-104178587D01*
X198313960Y-104162483D01*
X198219361Y-104147500D01*
X198020639Y-104147500D01*
X197955214Y-104157862D01*
X197824362Y-104178587D01*
X197635370Y-104239993D01*
X197635367Y-104239994D01*
X197458305Y-104330213D01*
X197297533Y-104447021D01*
X197157021Y-104587533D01*
X197040213Y-104748305D01*
X196949994Y-104925367D01*
X196949993Y-104925370D01*
X196888587Y-105114362D01*
X196857500Y-105310639D01*
X196857500Y-105509360D01*
X196888587Y-105705637D01*
X196949993Y-105894629D01*
X196949994Y-105894632D01*
X197008016Y-106008505D01*
X197040213Y-106071694D01*
X197157019Y-106232464D01*
X197297536Y-106372981D01*
X197458306Y-106489787D01*
X197545149Y-106534035D01*
X197635367Y-106580005D01*
X197635370Y-106580006D01*
X197710055Y-106604272D01*
X197824364Y-106641413D01*
X198020639Y-106672500D01*
X198020640Y-106672500D01*
X198219360Y-106672500D01*
X198219361Y-106672500D01*
X198415636Y-106641413D01*
X198604632Y-106580005D01*
X198781694Y-106489787D01*
X198942464Y-106372981D01*
X199082981Y-106232464D01*
X199199787Y-106071694D01*
X199279515Y-105915218D01*
X199327490Y-105864423D01*
X199395311Y-105847628D01*
X199461446Y-105870165D01*
X199500484Y-105915218D01*
X199580213Y-106071694D01*
X199697019Y-106232464D01*
X199837536Y-106372981D01*
X199998306Y-106489787D01*
X200085149Y-106534035D01*
X200175367Y-106580005D01*
X200175370Y-106580006D01*
X200250055Y-106604272D01*
X200364364Y-106641413D01*
X200560639Y-106672500D01*
X200560640Y-106672500D01*
X200759360Y-106672500D01*
X200759361Y-106672500D01*
X200955636Y-106641413D01*
X201144632Y-106580005D01*
X201321694Y-106489787D01*
X201482464Y-106372981D01*
X201622981Y-106232464D01*
X201739787Y-106071694D01*
X201819515Y-105915218D01*
X201867490Y-105864423D01*
X201935311Y-105847628D01*
X202001446Y-105870165D01*
X202040484Y-105915218D01*
X202120213Y-106071694D01*
X202237019Y-106232464D01*
X202377536Y-106372981D01*
X202538306Y-106489787D01*
X202625149Y-106534035D01*
X202715367Y-106580005D01*
X202715370Y-106580006D01*
X202790055Y-106604272D01*
X202904364Y-106641413D01*
X203100639Y-106672500D01*
X203100640Y-106672500D01*
X203299360Y-106672500D01*
X203299361Y-106672500D01*
X203495636Y-106641413D01*
X203684632Y-106580005D01*
X203861694Y-106489787D01*
X204022464Y-106372981D01*
X204162981Y-106232464D01*
X204279787Y-106071694D01*
X204359515Y-105915218D01*
X204407490Y-105864423D01*
X204475311Y-105847628D01*
X204541446Y-105870165D01*
X204580484Y-105915218D01*
X204660213Y-106071694D01*
X204777019Y-106232464D01*
X204917536Y-106372981D01*
X205078306Y-106489787D01*
X205165149Y-106534035D01*
X205255367Y-106580005D01*
X205255370Y-106580006D01*
X205330055Y-106604272D01*
X205444364Y-106641413D01*
X205640639Y-106672500D01*
X205640640Y-106672500D01*
X205839360Y-106672500D01*
X205839361Y-106672500D01*
X206035636Y-106641413D01*
X206224632Y-106580005D01*
X206401694Y-106489787D01*
X206562464Y-106372981D01*
X206702981Y-106232464D01*
X206819787Y-106071694D01*
X206899515Y-105915218D01*
X206947490Y-105864423D01*
X207015311Y-105847628D01*
X207081446Y-105870165D01*
X207120484Y-105915218D01*
X207200213Y-106071694D01*
X207317019Y-106232464D01*
X207457536Y-106372981D01*
X207618306Y-106489787D01*
X207705149Y-106534035D01*
X207795367Y-106580005D01*
X207795370Y-106580006D01*
X207870055Y-106604272D01*
X207984364Y-106641413D01*
X208180639Y-106672500D01*
X208180640Y-106672500D01*
X208379360Y-106672500D01*
X208379361Y-106672500D01*
X208575636Y-106641413D01*
X208764632Y-106580005D01*
X208941694Y-106489787D01*
X209102464Y-106372981D01*
X209242981Y-106232464D01*
X209359787Y-106071694D01*
X209439796Y-105914667D01*
X209487769Y-105863872D01*
X209555590Y-105847077D01*
X209621725Y-105869614D01*
X209660765Y-105914668D01*
X209740641Y-106071432D01*
X209767730Y-106108715D01*
X209767731Y-106108716D01*
X210382352Y-105494094D01*
X210405792Y-105581571D01*
X210464311Y-105682930D01*
X210547070Y-105765689D01*
X210648429Y-105824208D01*
X210735904Y-105847647D01*
X210121283Y-106462268D01*
X210121283Y-106462269D01*
X210158567Y-106489358D01*
X210335562Y-106579542D01*
X210524477Y-106640924D01*
X210720679Y-106672000D01*
X210919321Y-106672000D01*
X211115520Y-106640924D01*
X211115523Y-106640924D01*
X211304437Y-106579542D01*
X211465405Y-106497525D01*
X211534074Y-106484629D01*
X211598815Y-106510905D01*
X211639072Y-106568012D01*
X211645700Y-106608010D01*
X211645700Y-109195102D01*
X211626015Y-109262141D01*
X211609381Y-109282783D01*
X210440739Y-110451425D01*
X210379416Y-110484910D01*
X210377250Y-110485361D01*
X210221908Y-110516261D01*
X210221898Y-110516264D01*
X210076227Y-110576602D01*
X210076214Y-110576609D01*
X209945111Y-110664210D01*
X209945107Y-110664213D01*
X209833613Y-110775707D01*
X209833610Y-110775711D01*
X209746009Y-110906814D01*
X209746002Y-110906827D01*
X209685664Y-111052498D01*
X209685661Y-111052510D01*
X209654900Y-111207153D01*
X209654900Y-111364846D01*
X209685661Y-111519489D01*
X209685664Y-111519501D01*
X209746002Y-111665172D01*
X209746009Y-111665185D01*
X209833610Y-111796288D01*
X209833613Y-111796292D01*
X209945107Y-111907786D01*
X209945111Y-111907789D01*
X210076214Y-111995390D01*
X210076227Y-111995397D01*
X210221898Y-112055735D01*
X210221903Y-112055737D01*
X210376553Y-112086499D01*
X210376556Y-112086500D01*
X210376558Y-112086500D01*
X210534244Y-112086500D01*
X210534245Y-112086499D01*
X210688897Y-112055737D01*
X210834579Y-111995394D01*
X210965689Y-111907789D01*
X211077189Y-111796289D01*
X211164794Y-111665179D01*
X211169746Y-111653225D01*
X211189224Y-111606199D01*
X211225137Y-111519497D01*
X211255283Y-111367946D01*
X211256038Y-111364150D01*
X211288423Y-111302239D01*
X211289917Y-111300717D01*
X212726720Y-109863916D01*
X212805777Y-109726984D01*
X212846701Y-109574257D01*
X212846701Y-109416142D01*
X212846701Y-109408547D01*
X212846700Y-109408529D01*
X212846700Y-109072322D01*
X214129500Y-109072322D01*
X214129500Y-109367677D01*
X214162567Y-109661149D01*
X214162569Y-109661165D01*
X214228288Y-109949102D01*
X214228292Y-109949114D01*
X214325833Y-110227868D01*
X214325839Y-110227882D01*
X214453980Y-110493969D01*
X214467987Y-110516261D01*
X214611115Y-110744049D01*
X214795260Y-110974960D01*
X215004101Y-111183801D01*
X215235012Y-111367946D01*
X215485089Y-111525079D01*
X215751186Y-111653225D01*
X215785366Y-111665185D01*
X216029946Y-111750768D01*
X216029958Y-111750772D01*
X216317899Y-111816492D01*
X216611383Y-111849560D01*
X216611384Y-111849561D01*
X216611388Y-111849561D01*
X216906738Y-111849561D01*
X216906738Y-111849560D01*
X217200223Y-111816492D01*
X217488164Y-111750772D01*
X217766936Y-111653225D01*
X218033033Y-111525079D01*
X218283110Y-111367946D01*
X218514021Y-111183801D01*
X218722862Y-110974960D01*
X218907007Y-110744049D01*
X219064140Y-110493972D01*
X219192286Y-110227875D01*
X219289833Y-109949103D01*
X219355553Y-109661162D01*
X219388622Y-109367673D01*
X219388622Y-109072327D01*
X219355553Y-108778838D01*
X219289833Y-108490897D01*
X219192286Y-108212125D01*
X219064140Y-107946028D01*
X218907007Y-107695951D01*
X218722862Y-107465040D01*
X218514021Y-107256199D01*
X218283110Y-107072054D01*
X218064188Y-106934497D01*
X218033030Y-106914919D01*
X217766943Y-106786778D01*
X217766929Y-106786772D01*
X217488175Y-106689231D01*
X217488163Y-106689227D01*
X217200226Y-106623508D01*
X217200210Y-106623506D01*
X216906738Y-106590439D01*
X216906734Y-106590439D01*
X216611388Y-106590439D01*
X216611384Y-106590439D01*
X216317911Y-106623506D01*
X216317895Y-106623508D01*
X216029958Y-106689227D01*
X216029946Y-106689231D01*
X215751192Y-106786772D01*
X215751178Y-106786778D01*
X215485091Y-106914919D01*
X215235013Y-107072053D01*
X215004101Y-107256198D01*
X214795259Y-107465040D01*
X214611114Y-107695952D01*
X214453980Y-107946030D01*
X214325839Y-108212117D01*
X214325833Y-108212131D01*
X214228292Y-108490885D01*
X214228288Y-108490897D01*
X214162569Y-108778834D01*
X214162567Y-108778850D01*
X214129500Y-109072322D01*
X212846700Y-109072322D01*
X212846700Y-106741361D01*
X212866385Y-106674322D01*
X212919189Y-106628567D01*
X212988347Y-106618623D01*
X213009013Y-106623428D01*
X213064364Y-106641413D01*
X213260639Y-106672500D01*
X213260640Y-106672500D01*
X213459360Y-106672500D01*
X213459361Y-106672500D01*
X213655636Y-106641413D01*
X213844632Y-106580005D01*
X214021694Y-106489787D01*
X214182464Y-106372981D01*
X214322981Y-106232464D01*
X214439787Y-106071694D01*
X214530005Y-105894632D01*
X214591413Y-105705636D01*
X214622500Y-105509361D01*
X214622500Y-105310639D01*
X214591413Y-105114364D01*
X214539031Y-104953148D01*
X214530006Y-104925370D01*
X214530005Y-104925367D01*
X214464042Y-104795909D01*
X214439787Y-104748306D01*
X214322981Y-104587536D01*
X214182464Y-104447019D01*
X214021694Y-104330213D01*
X214011037Y-104324783D01*
X213844632Y-104239994D01*
X213844629Y-104239993D01*
X213655637Y-104178587D01*
X213553960Y-104162483D01*
X213459361Y-104147500D01*
X213260639Y-104147500D01*
X213221384Y-104153717D01*
X213064360Y-104178587D01*
X213009017Y-104196569D01*
X212939176Y-104198564D01*
X212879343Y-104162483D01*
X212848516Y-104099781D01*
X212846700Y-104078638D01*
X212846700Y-91583897D01*
X212855344Y-91554456D01*
X212861868Y-91524470D01*
X212865622Y-91519454D01*
X212866385Y-91516858D01*
X212883019Y-91496216D01*
X212945473Y-91433762D01*
X213006796Y-91400277D01*
X213059521Y-91400843D01*
X213059552Y-91400651D01*
X213060856Y-91400857D01*
X213062109Y-91400871D01*
X213064355Y-91401410D01*
X213064364Y-91401413D01*
X213260639Y-91432500D01*
X213260640Y-91432500D01*
X213459360Y-91432500D01*
X213459361Y-91432500D01*
X213655636Y-91401413D01*
X213844632Y-91340005D01*
X214021694Y-91249787D01*
X214182464Y-91132981D01*
X214322981Y-90992464D01*
X214439787Y-90831694D01*
X214530005Y-90654632D01*
X214591413Y-90465636D01*
X214622500Y-90269361D01*
X214622500Y-90070639D01*
X214591413Y-89874364D01*
X214530005Y-89685368D01*
X214530005Y-89685367D01*
X214484035Y-89595149D01*
X214439787Y-89508306D01*
X214322981Y-89347536D01*
X214182464Y-89207019D01*
X214021694Y-89090213D01*
X213963674Y-89060650D01*
X213844632Y-88999994D01*
X213844629Y-88999993D01*
X213655637Y-88938587D01*
X213557498Y-88923043D01*
X213459361Y-88907500D01*
X213260639Y-88907500D01*
X213195214Y-88917862D01*
X213064362Y-88938587D01*
X212875370Y-88999993D01*
X212875367Y-88999994D01*
X212698305Y-89090213D01*
X212537533Y-89207021D01*
X212397021Y-89347533D01*
X212280213Y-89508305D01*
X212200485Y-89664780D01*
X212152510Y-89715576D01*
X212084689Y-89732371D01*
X212018554Y-89709833D01*
X211979515Y-89664780D01*
X211960179Y-89626832D01*
X211899787Y-89508306D01*
X211782981Y-89347536D01*
X211642464Y-89207019D01*
X211481694Y-89090213D01*
X211423674Y-89060650D01*
X211304632Y-88999994D01*
X211304629Y-88999993D01*
X211115637Y-88938587D01*
X211017498Y-88923043D01*
X210919361Y-88907500D01*
X210720639Y-88907500D01*
X210655214Y-88917862D01*
X210524362Y-88938587D01*
X210335370Y-88999993D01*
X210335367Y-88999994D01*
X210158305Y-89090213D01*
X209997533Y-89207021D01*
X209857021Y-89347533D01*
X209740213Y-89508305D01*
X209660485Y-89664780D01*
X209612510Y-89715576D01*
X209544689Y-89732371D01*
X209478554Y-89709833D01*
X209439515Y-89664780D01*
X209420179Y-89626832D01*
X209359787Y-89508306D01*
X209242981Y-89347536D01*
X209102464Y-89207019D01*
X208941694Y-89090213D01*
X208883674Y-89060650D01*
X208764632Y-88999994D01*
X208764629Y-88999993D01*
X208575637Y-88938587D01*
X208477498Y-88923043D01*
X208379361Y-88907500D01*
X208180639Y-88907500D01*
X208115214Y-88917862D01*
X207984362Y-88938587D01*
X207795370Y-88999993D01*
X207795367Y-88999994D01*
X207618305Y-89090213D01*
X207457533Y-89207021D01*
X207317021Y-89347533D01*
X207200213Y-89508305D01*
X207120485Y-89664780D01*
X207072510Y-89715576D01*
X207004689Y-89732371D01*
X206938554Y-89709833D01*
X206899515Y-89664780D01*
X206880179Y-89626832D01*
X206819787Y-89508306D01*
X206702981Y-89347536D01*
X206562464Y-89207019D01*
X206401694Y-89090213D01*
X206343674Y-89060650D01*
X206224632Y-88999994D01*
X206224629Y-88999993D01*
X206035637Y-88938587D01*
X205937498Y-88923043D01*
X205839361Y-88907500D01*
X205640639Y-88907500D01*
X205575214Y-88917862D01*
X205444362Y-88938587D01*
X205255370Y-88999993D01*
X205255367Y-88999994D01*
X205078305Y-89090213D01*
X204917533Y-89207021D01*
X204777021Y-89347533D01*
X204660213Y-89508305D01*
X204580485Y-89664780D01*
X204532510Y-89715576D01*
X204464689Y-89732371D01*
X204398554Y-89709833D01*
X204359515Y-89664780D01*
X204340179Y-89626832D01*
X204279787Y-89508306D01*
X204162981Y-89347536D01*
X204022464Y-89207019D01*
X203861694Y-89090213D01*
X203861690Y-89090210D01*
X203859715Y-89089000D01*
X203859121Y-89088343D01*
X203857752Y-89087349D01*
X203857960Y-89087061D01*
X203812837Y-89037190D01*
X203800500Y-88983270D01*
X203800500Y-85579235D01*
X203820185Y-85512196D01*
X203872989Y-85466441D01*
X203877047Y-85464674D01*
X203945473Y-85436331D01*
X203961979Y-85429494D01*
X204093089Y-85341889D01*
X204204589Y-85230389D01*
X204292194Y-85099279D01*
X204352537Y-84953597D01*
X204383300Y-84798942D01*
X204383300Y-84641258D01*
X204383300Y-84641255D01*
X204383299Y-84641253D01*
X204372748Y-84588210D01*
X204352537Y-84486603D01*
X204325002Y-84420127D01*
X204292197Y-84340927D01*
X204292190Y-84340914D01*
X204204589Y-84209811D01*
X204204586Y-84209807D01*
X204199480Y-84204701D01*
X204165995Y-84143378D01*
X204170979Y-84073686D01*
X204212851Y-84017753D01*
X204278315Y-83993336D01*
X204289305Y-83993039D01*
X215328833Y-84185222D01*
X215395518Y-84206070D01*
X215440347Y-84259663D01*
X215449085Y-84328984D01*
X215418958Y-84392025D01*
X215414354Y-84396884D01*
X215206198Y-84605040D01*
X215022053Y-84835952D01*
X214864919Y-85086030D01*
X214736778Y-85352117D01*
X214736772Y-85352131D01*
X214639231Y-85630885D01*
X214639227Y-85630897D01*
X214573508Y-85918834D01*
X214573506Y-85918850D01*
X214540439Y-86212322D01*
X214540439Y-86507677D01*
X214573506Y-86801149D01*
X214573508Y-86801165D01*
X214639227Y-87089102D01*
X214639231Y-87089114D01*
X214736772Y-87367868D01*
X214736778Y-87367882D01*
X214864919Y-87633969D01*
X214864921Y-87633972D01*
X215022054Y-87884049D01*
X215101396Y-87983541D01*
X215167305Y-88066189D01*
X215206199Y-88114960D01*
X215415040Y-88323801D01*
X215645951Y-88507946D01*
X215896028Y-88665079D01*
X216162125Y-88793225D01*
X216162131Y-88793227D01*
X216440885Y-88890768D01*
X216440897Y-88890772D01*
X216728838Y-88956492D01*
X217022322Y-88989560D01*
X217022323Y-88989561D01*
X217022327Y-88989561D01*
X217317677Y-88989561D01*
X217317677Y-88989560D01*
X217611162Y-88956492D01*
X217899103Y-88890772D01*
X218177875Y-88793225D01*
X218443972Y-88665079D01*
X218694049Y-88507946D01*
X218924960Y-88323801D01*
X219133801Y-88114960D01*
X219317946Y-87884049D01*
X219475079Y-87633972D01*
X219603225Y-87367875D01*
X219674092Y-87165348D01*
X219714812Y-87108576D01*
X219779765Y-87082829D01*
X219848326Y-87096285D01*
X219898729Y-87144672D01*
X219915131Y-87206683D01*
X219869917Y-102110464D01*
X219869914Y-102111042D01*
X219802728Y-110845349D01*
X219800156Y-110869537D01*
X219770062Y-111014875D01*
X219765867Y-111030148D01*
X219687385Y-111257797D01*
X219646926Y-111314760D01*
X219644556Y-111316582D01*
X218231779Y-112376165D01*
X218166337Y-112400641D01*
X218160286Y-112400931D01*
X147438332Y-114059401D01*
X147438013Y-114059408D01*
X99056053Y-115069473D01*
X99056052Y-115069473D01*
X99054758Y-115069500D01*
X98994108Y-115069500D01*
X98988985Y-115070872D01*
X98983676Y-115070983D01*
X98926666Y-115087542D01*
X98924174Y-115088238D01*
X98866808Y-115103609D01*
X98862438Y-115105419D01*
X98862410Y-115105431D01*
X98861595Y-115105768D01*
X98861455Y-115105839D01*
X98857119Y-115107742D01*
X98806340Y-115138490D01*
X98804116Y-115139806D01*
X98752683Y-115169502D01*
X98748931Y-115172381D01*
X98748903Y-115172402D01*
X98748197Y-115172942D01*
X98748083Y-115173045D01*
X98744395Y-115175999D01*
X98703277Y-115218867D01*
X98703278Y-115218868D01*
X98702363Y-115219821D01*
X98659500Y-115262686D01*
X98656845Y-115267281D01*
X98653172Y-115271112D01*
X98624573Y-115323124D01*
X98623305Y-115325374D01*
X98593605Y-115376818D01*
X98591795Y-115381188D01*
X98591794Y-115381187D01*
X98591448Y-115382023D01*
X98591395Y-115382186D01*
X98589676Y-115386593D01*
X98575503Y-115444271D01*
X98575504Y-115444272D01*
X98575189Y-115445550D01*
X98559500Y-115504108D01*
X98559500Y-115509410D01*
X98558234Y-115514563D01*
X98558233Y-115514569D01*
X98559473Y-115573930D01*
X98559500Y-115576518D01*
X98559500Y-120186555D01*
X98539815Y-120253594D01*
X98487011Y-120299349D01*
X98452178Y-120304357D01*
X98159271Y-119718542D01*
X98190500Y-119687314D01*
X98256392Y-119573186D01*
X98290500Y-119445892D01*
X98290500Y-115504108D01*
X98256392Y-115376814D01*
X98190500Y-115262686D01*
X98097314Y-115169500D01*
X98040250Y-115136554D01*
X97983187Y-115103608D01*
X97861430Y-115070984D01*
X97855892Y-115069500D01*
X81345892Y-115069500D01*
X81214108Y-115069500D01*
X81086812Y-115103608D01*
X80972686Y-115169500D01*
X80972683Y-115169502D01*
X80879502Y-115262683D01*
X80879500Y-115262686D01*
X80856991Y-115301671D01*
X79375232Y-116124870D01*
X79350585Y-116109324D01*
X79321024Y-116046016D01*
X79330382Y-115976776D01*
X79375688Y-115923587D01*
X79389807Y-115915611D01*
X79473966Y-115875082D01*
X79473966Y-115875081D01*
X79473972Y-115875079D01*
X79724049Y-115717946D01*
X79954960Y-115533801D01*
X80163801Y-115324960D01*
X80347946Y-115094049D01*
X80505079Y-114843972D01*
X80633225Y-114577875D01*
X80730772Y-114299103D01*
X80796492Y-114011162D01*
X80829561Y-113717673D01*
X80829561Y-113422327D01*
X80796492Y-113128838D01*
X80730772Y-112840897D01*
X80633225Y-112562125D01*
X80505079Y-112296028D01*
X80347946Y-112045951D01*
X80163801Y-111815040D01*
X79954960Y-111606199D01*
X79724049Y-111422054D01*
X79473972Y-111264921D01*
X79473969Y-111264919D01*
X79207882Y-111136778D01*
X79207868Y-111136772D01*
X78929114Y-111039231D01*
X78929102Y-111039227D01*
X78641165Y-110973508D01*
X78641149Y-110973506D01*
X78347677Y-110940439D01*
X78347673Y-110940439D01*
X78052327Y-110940439D01*
X78052323Y-110940439D01*
X77758850Y-110973506D01*
X77758834Y-110973508D01*
X77470897Y-111039227D01*
X77470885Y-111039231D01*
X77192131Y-111136772D01*
X77192117Y-111136778D01*
X76926030Y-111264919D01*
X76675952Y-111422053D01*
X76445040Y-111606198D01*
X76236198Y-111815040D01*
X76052053Y-112045952D01*
X75973888Y-112170351D01*
X75921553Y-112216642D01*
X75852500Y-112227290D01*
X75788651Y-112198915D01*
X75750279Y-112140525D01*
X75744938Y-112107647D01*
X75478926Y-101999189D01*
X75478884Y-101996403D01*
X75464025Y-96641228D01*
X80429500Y-96641228D01*
X80429500Y-96808771D01*
X80459545Y-96959817D01*
X80462184Y-96973082D01*
X80484851Y-97027804D01*
X80526295Y-97127860D01*
X80619373Y-97267162D01*
X80737837Y-97385626D01*
X80830494Y-97447537D01*
X80877137Y-97478703D01*
X81031918Y-97542816D01*
X81196228Y-97575499D01*
X81196232Y-97575500D01*
X81196233Y-97575500D01*
X81363768Y-97575500D01*
X81363769Y-97575499D01*
X81528082Y-97542816D01*
X81682863Y-97478703D01*
X81822162Y-97385626D01*
X81940626Y-97267162D01*
X82033703Y-97127863D01*
X82097816Y-96973082D01*
X82130500Y-96808767D01*
X82130500Y-96641233D01*
X82097816Y-96476918D01*
X82051698Y-96365582D01*
X82044230Y-96296115D01*
X82075505Y-96233636D01*
X82135593Y-96197983D01*
X82178864Y-96194773D01*
X82230021Y-96199999D01*
X82629999Y-96199999D01*
X82630000Y-96199998D01*
X82630000Y-95129145D01*
X82696657Y-95167630D01*
X82817465Y-95200000D01*
X82942535Y-95200000D01*
X83063343Y-95167630D01*
X83130000Y-95129145D01*
X83130000Y-96199999D01*
X83529972Y-96199999D01*
X83529986Y-96199998D01*
X83632697Y-96189505D01*
X83799119Y-96134358D01*
X83799124Y-96134356D01*
X83948345Y-96042315D01*
X84072317Y-95918343D01*
X84167815Y-95763516D01*
X84219763Y-95716791D01*
X84288725Y-95705568D01*
X84352808Y-95733412D01*
X84361035Y-95740931D01*
X84500213Y-95880109D01*
X84672179Y-96005048D01*
X84672181Y-96005049D01*
X84672184Y-96005051D01*
X84861588Y-96101557D01*
X85063757Y-96167246D01*
X85273713Y-96200500D01*
X85273714Y-96200500D01*
X85486286Y-96200500D01*
X85486287Y-96200500D01*
X85696243Y-96167246D01*
X85898412Y-96101557D01*
X86087816Y-96005051D01*
X86134275Y-95971297D01*
X86259786Y-95880109D01*
X86259788Y-95880106D01*
X86259792Y-95880104D01*
X86410104Y-95729792D01*
X86529683Y-95565204D01*
X86585011Y-95522540D01*
X86654624Y-95516561D01*
X86716420Y-95549166D01*
X86730313Y-95565199D01*
X86795093Y-95654361D01*
X86849896Y-95729792D01*
X87000213Y-95880109D01*
X87172179Y-96005048D01*
X87172181Y-96005049D01*
X87172184Y-96005051D01*
X87361588Y-96101557D01*
X87563757Y-96167246D01*
X87773713Y-96200500D01*
X87773714Y-96200500D01*
X87986286Y-96200500D01*
X87986287Y-96200500D01*
X88196243Y-96167246D01*
X88367186Y-96111702D01*
X88437022Y-96109708D01*
X88496855Y-96145788D01*
X88527684Y-96208488D01*
X88529500Y-96229634D01*
X88529500Y-104884575D01*
X88509815Y-104951614D01*
X88457011Y-104997369D01*
X88387853Y-105007313D01*
X88340729Y-104988205D01*
X88339834Y-104989666D01*
X88335686Y-104987124D01*
X88144170Y-104889541D01*
X88144167Y-104889540D01*
X87939757Y-104823124D01*
X87796639Y-104800456D01*
X87727467Y-104789500D01*
X87512533Y-104789500D01*
X87443361Y-104800456D01*
X87300243Y-104823124D01*
X87300240Y-104823124D01*
X87095832Y-104889540D01*
X87095829Y-104889541D01*
X86904321Y-104987120D01*
X86820981Y-105047671D01*
X86730437Y-105113455D01*
X86730435Y-105113457D01*
X86730434Y-105113457D01*
X86578457Y-105265434D01*
X86578457Y-105265435D01*
X86578455Y-105265437D01*
X86550419Y-105304025D01*
X86450009Y-105442227D01*
X86394679Y-105484892D01*
X86325065Y-105490871D01*
X86263270Y-105458265D01*
X86249373Y-105442227D01*
X86121161Y-105265759D01*
X85969240Y-105113838D01*
X85795416Y-104987547D01*
X85603975Y-104890003D01*
X85399635Y-104823610D01*
X85399636Y-104823610D01*
X85330000Y-104812581D01*
X85330000Y-105860439D01*
X85276853Y-105829755D01*
X85147143Y-105795000D01*
X85012857Y-105795000D01*
X84883147Y-105829755D01*
X84830000Y-105860439D01*
X84830000Y-104812581D01*
X84760364Y-104823610D01*
X84556024Y-104890003D01*
X84364583Y-104987547D01*
X84190763Y-105113835D01*
X84096102Y-105208496D01*
X84034778Y-105241980D01*
X83965087Y-105236996D01*
X83909154Y-105195124D01*
X83892239Y-105164146D01*
X83848798Y-105047673D01*
X83848793Y-105047664D01*
X83762547Y-104932455D01*
X83762544Y-104932452D01*
X83647335Y-104846206D01*
X83647328Y-104846202D01*
X83512482Y-104795908D01*
X83512483Y-104795908D01*
X83452883Y-104789501D01*
X83452881Y-104789500D01*
X83452873Y-104789500D01*
X83452864Y-104789500D01*
X81627129Y-104789500D01*
X81627123Y-104789501D01*
X81567516Y-104795908D01*
X81432671Y-104846202D01*
X81432664Y-104846206D01*
X81317455Y-104932452D01*
X81317452Y-104932455D01*
X81231206Y-105047664D01*
X81231202Y-105047671D01*
X81180908Y-105182517D01*
X81174501Y-105242116D01*
X81174500Y-105242135D01*
X81174500Y-107367870D01*
X81174501Y-107367876D01*
X81180908Y-107427483D01*
X81231202Y-107562328D01*
X81231206Y-107562335D01*
X81317452Y-107677544D01*
X81317455Y-107677547D01*
X81432664Y-107763793D01*
X81432671Y-107763797D01*
X81567517Y-107814091D01*
X81567516Y-107814091D01*
X81574444Y-107814835D01*
X81627127Y-107820500D01*
X83452872Y-107820499D01*
X83512483Y-107814091D01*
X83647331Y-107763796D01*
X83762546Y-107677546D01*
X83848796Y-107562331D01*
X83892239Y-107445851D01*
X83934109Y-107389919D01*
X83999573Y-107365501D01*
X84067846Y-107380352D01*
X84096102Y-107401504D01*
X84190759Y-107496161D01*
X84364583Y-107622452D01*
X84556024Y-107719996D01*
X84760359Y-107786388D01*
X84829999Y-107797418D01*
X84830000Y-107797418D01*
X84830000Y-106749560D01*
X84883147Y-106780245D01*
X85012857Y-106815000D01*
X85147143Y-106815000D01*
X85276853Y-106780245D01*
X85330000Y-106749560D01*
X85330000Y-107797418D01*
X85399638Y-107786388D01*
X85399641Y-107786388D01*
X85603975Y-107719996D01*
X85795416Y-107622452D01*
X85969240Y-107496161D01*
X86121161Y-107344240D01*
X86121166Y-107344234D01*
X86249373Y-107167773D01*
X86304703Y-107125107D01*
X86374316Y-107119128D01*
X86436111Y-107151734D01*
X86450009Y-107167772D01*
X86452119Y-107170676D01*
X86452120Y-107170678D01*
X86578455Y-107344563D01*
X86730437Y-107496545D01*
X86904322Y-107622880D01*
X86935777Y-107638907D01*
X87095829Y-107720458D01*
X87095832Y-107720459D01*
X87248349Y-107770014D01*
X87300245Y-107786876D01*
X87512533Y-107820500D01*
X87512534Y-107820500D01*
X87727466Y-107820500D01*
X87727467Y-107820500D01*
X87939755Y-107786876D01*
X87939758Y-107786875D01*
X87939759Y-107786875D01*
X88144167Y-107720459D01*
X88144170Y-107720458D01*
X88154085Y-107715406D01*
X88335678Y-107622880D01*
X88509563Y-107496545D01*
X88661545Y-107344563D01*
X88787880Y-107170678D01*
X88885458Y-106979170D01*
X88892749Y-106956727D01*
X88932183Y-106899052D01*
X88961338Y-106881282D01*
X88969736Y-106877639D01*
X89018485Y-106864577D01*
X89068604Y-106835639D01*
X89155416Y-106785520D01*
X89267220Y-106673716D01*
X89267221Y-106673714D01*
X89610520Y-106330416D01*
X89689577Y-106193484D01*
X89730501Y-106040757D01*
X89730501Y-105882642D01*
X89730501Y-105875047D01*
X89730500Y-105875029D01*
X89730500Y-96229634D01*
X89750185Y-96162595D01*
X89802989Y-96116840D01*
X89872147Y-96106896D01*
X89892801Y-96111698D01*
X90063757Y-96167246D01*
X90273713Y-96200500D01*
X90273714Y-96200500D01*
X90486286Y-96200500D01*
X90486287Y-96200500D01*
X90696243Y-96167246D01*
X90898412Y-96101557D01*
X91087816Y-96005051D01*
X91134275Y-95971297D01*
X91259786Y-95880109D01*
X91259788Y-95880106D01*
X91259792Y-95880104D01*
X91410104Y-95729792D01*
X91410106Y-95729788D01*
X91410109Y-95729786D01*
X91535048Y-95557820D01*
X91535047Y-95557820D01*
X91535051Y-95557816D01*
X91631557Y-95368412D01*
X91697246Y-95166243D01*
X91730500Y-94956287D01*
X91730500Y-94493713D01*
X91697246Y-94283757D01*
X91631557Y-94081588D01*
X91535051Y-93892184D01*
X91535049Y-93892181D01*
X91535048Y-93892179D01*
X91410109Y-93720213D01*
X91259786Y-93569890D01*
X91087820Y-93444951D01*
X90898414Y-93348444D01*
X90898413Y-93348443D01*
X90898412Y-93348443D01*
X90696243Y-93282754D01*
X90696241Y-93282753D01*
X90696240Y-93282753D01*
X90534957Y-93257208D01*
X90486287Y-93249500D01*
X90273713Y-93249500D01*
X90225042Y-93257208D01*
X90063760Y-93282753D01*
X90063757Y-93282754D01*
X89892817Y-93338296D01*
X89822977Y-93340291D01*
X89763144Y-93304211D01*
X89732316Y-93241510D01*
X89730500Y-93220365D01*
X89730500Y-90735697D01*
X89750185Y-90668658D01*
X89766819Y-90648016D01*
X90058292Y-90356543D01*
X90441462Y-89973372D01*
X90502783Y-89939889D01*
X90504950Y-89939438D01*
X90562885Y-89927913D01*
X90660297Y-89908537D01*
X90805979Y-89848194D01*
X90937089Y-89760589D01*
X91048589Y-89649089D01*
X91136194Y-89517979D01*
X91196537Y-89372297D01*
X91227300Y-89217642D01*
X91227300Y-89059958D01*
X91227300Y-89059955D01*
X91227299Y-89059953D01*
X91215800Y-89002144D01*
X91196537Y-88905303D01*
X91190518Y-88890772D01*
X91136197Y-88759627D01*
X91136190Y-88759614D01*
X91048589Y-88628511D01*
X91048586Y-88628507D01*
X90937092Y-88517013D01*
X90937088Y-88517010D01*
X90805985Y-88429409D01*
X90805972Y-88429402D01*
X90660301Y-88369064D01*
X90660289Y-88369061D01*
X90505645Y-88338300D01*
X90505642Y-88338300D01*
X90347958Y-88338300D01*
X90347955Y-88338300D01*
X90193310Y-88369061D01*
X90193298Y-88369064D01*
X90047627Y-88429402D01*
X90047614Y-88429409D01*
X89916511Y-88517010D01*
X89916507Y-88517013D01*
X89805013Y-88628507D01*
X89805010Y-88628511D01*
X89717409Y-88759614D01*
X89717402Y-88759627D01*
X89657064Y-88905298D01*
X89657061Y-88905308D01*
X89626161Y-89060650D01*
X89593776Y-89122561D01*
X89592225Y-89124139D01*
X88692181Y-90024183D01*
X88630858Y-90057668D01*
X88561166Y-90052684D01*
X88505233Y-90010812D01*
X88480816Y-89945348D01*
X88480500Y-89936502D01*
X88480500Y-87477053D01*
X97676300Y-87477053D01*
X97676300Y-87634746D01*
X97707061Y-87789389D01*
X97707064Y-87789401D01*
X97767402Y-87935072D01*
X97767409Y-87935085D01*
X97855010Y-88066188D01*
X97855013Y-88066192D01*
X97966507Y-88177686D01*
X97966511Y-88177689D01*
X98097614Y-88265290D01*
X98097627Y-88265297D01*
X98187360Y-88302465D01*
X98243303Y-88325637D01*
X98306964Y-88338300D01*
X98398649Y-88356538D01*
X98460560Y-88388923D01*
X98462139Y-88390474D01*
X99190881Y-89119216D01*
X99224366Y-89180539D01*
X99227200Y-89206897D01*
X99227200Y-107231014D01*
X99207515Y-107298053D01*
X99154711Y-107343808D01*
X99127392Y-107352631D01*
X98992508Y-107379461D01*
X98992498Y-107379464D01*
X98846827Y-107439802D01*
X98846814Y-107439809D01*
X98715711Y-107527410D01*
X98715707Y-107527413D01*
X98604213Y-107638907D01*
X98604210Y-107638911D01*
X98516609Y-107770014D01*
X98516602Y-107770027D01*
X98456264Y-107915698D01*
X98456261Y-107915710D01*
X98425500Y-108070353D01*
X98425500Y-108228046D01*
X98456261Y-108382689D01*
X98456264Y-108382701D01*
X98516602Y-108528372D01*
X98516609Y-108528385D01*
X98602802Y-108657380D01*
X98623680Y-108724057D01*
X98623700Y-108726271D01*
X98623700Y-109556130D01*
X98623699Y-109556148D01*
X98623699Y-109721854D01*
X98623698Y-109721854D01*
X98623699Y-109721857D01*
X98664623Y-109874585D01*
X98674413Y-109891541D01*
X98674414Y-109891544D01*
X98743675Y-110011509D01*
X98743681Y-110011517D01*
X98862549Y-110130385D01*
X98862555Y-110130390D01*
X99067139Y-110334974D01*
X99067149Y-110334985D01*
X99071479Y-110339315D01*
X99071480Y-110339316D01*
X99183284Y-110451120D01*
X99257507Y-110493972D01*
X99296115Y-110516263D01*
X99320215Y-110530177D01*
X99472942Y-110571100D01*
X99472943Y-110571100D01*
X99955531Y-110571100D01*
X99955547Y-110571101D01*
X99963143Y-110571101D01*
X100121254Y-110571101D01*
X100121257Y-110571101D01*
X100273985Y-110530177D01*
X100336693Y-110493972D01*
X100410916Y-110451120D01*
X100522720Y-110339316D01*
X100522720Y-110339314D01*
X100532924Y-110329111D01*
X100532928Y-110329106D01*
X104870606Y-105991428D01*
X104870611Y-105991424D01*
X104880814Y-105981220D01*
X104880816Y-105981220D01*
X104992620Y-105869416D01*
X105040344Y-105786754D01*
X105064206Y-105745425D01*
X105064206Y-105745424D01*
X105064207Y-105745423D01*
X105071677Y-105732485D01*
X105112600Y-105579758D01*
X105112600Y-105421643D01*
X105112600Y-97703389D01*
X110024500Y-97703389D01*
X110024500Y-97876611D01*
X110051598Y-98047701D01*
X110105127Y-98212445D01*
X110183768Y-98366788D01*
X110285586Y-98506928D01*
X110408072Y-98629414D01*
X110548212Y-98731232D01*
X110702555Y-98809873D01*
X110867299Y-98863402D01*
X111038389Y-98890500D01*
X111038390Y-98890500D01*
X111211610Y-98890500D01*
X111211611Y-98890500D01*
X111382701Y-98863402D01*
X111547445Y-98809873D01*
X111701788Y-98731232D01*
X111841928Y-98629414D01*
X111964414Y-98506928D01*
X112066232Y-98366788D01*
X112144873Y-98212445D01*
X112198402Y-98047701D01*
X112225500Y-97876611D01*
X112225500Y-97703389D01*
X112215854Y-97642486D01*
X113954500Y-97642486D01*
X113954500Y-97937513D01*
X113986571Y-98181113D01*
X113993007Y-98229993D01*
X114067212Y-98506930D01*
X114069361Y-98514951D01*
X114069364Y-98514961D01*
X114182254Y-98787500D01*
X114182258Y-98787510D01*
X114329761Y-99042993D01*
X114509352Y-99277040D01*
X114509358Y-99277047D01*
X114717952Y-99485641D01*
X114717959Y-99485647D01*
X114952006Y-99665238D01*
X115207489Y-99812741D01*
X115207490Y-99812741D01*
X115207493Y-99812743D01*
X115480048Y-99925639D01*
X115765007Y-100001993D01*
X116057494Y-100040500D01*
X116057501Y-100040500D01*
X116352499Y-100040500D01*
X116352506Y-100040500D01*
X116644993Y-100001993D01*
X116929952Y-99925639D01*
X117202507Y-99812743D01*
X117457994Y-99665238D01*
X117692042Y-99485646D01*
X117900646Y-99277042D01*
X118080238Y-99042994D01*
X118227743Y-98787507D01*
X118340639Y-98514952D01*
X118416993Y-98229993D01*
X118455500Y-97937506D01*
X118455500Y-97703389D01*
X120184500Y-97703389D01*
X120184500Y-97876611D01*
X120211598Y-98047701D01*
X120265127Y-98212445D01*
X120343768Y-98366788D01*
X120445586Y-98506928D01*
X120568072Y-98629414D01*
X120708212Y-98731232D01*
X120862555Y-98809873D01*
X121027299Y-98863402D01*
X121198389Y-98890500D01*
X121198390Y-98890500D01*
X121371610Y-98890500D01*
X121371611Y-98890500D01*
X121542701Y-98863402D01*
X121707445Y-98809873D01*
X121861788Y-98731232D01*
X122001928Y-98629414D01*
X122124414Y-98506928D01*
X122226232Y-98366788D01*
X122304873Y-98212445D01*
X122358402Y-98047701D01*
X122385500Y-97876611D01*
X122385500Y-97703389D01*
X129074500Y-97703389D01*
X129074500Y-97876611D01*
X129101598Y-98047701D01*
X129155127Y-98212445D01*
X129233768Y-98366788D01*
X129335586Y-98506928D01*
X129458072Y-98629414D01*
X129598212Y-98731232D01*
X129752555Y-98809873D01*
X129917299Y-98863402D01*
X130088389Y-98890500D01*
X130088390Y-98890500D01*
X130261610Y-98890500D01*
X130261611Y-98890500D01*
X130432701Y-98863402D01*
X130597445Y-98809873D01*
X130751788Y-98731232D01*
X130891928Y-98629414D01*
X131014414Y-98506928D01*
X131116232Y-98366788D01*
X131194873Y-98212445D01*
X131248402Y-98047701D01*
X131275500Y-97876611D01*
X131275500Y-97703389D01*
X131265854Y-97642486D01*
X133004500Y-97642486D01*
X133004500Y-97937513D01*
X133036571Y-98181113D01*
X133043007Y-98229993D01*
X133117212Y-98506930D01*
X133119361Y-98514951D01*
X133119364Y-98514961D01*
X133232254Y-98787500D01*
X133232258Y-98787510D01*
X133379761Y-99042993D01*
X133559352Y-99277040D01*
X133559358Y-99277047D01*
X133767952Y-99485641D01*
X133767959Y-99485647D01*
X134002006Y-99665238D01*
X134257489Y-99812741D01*
X134257490Y-99812741D01*
X134257493Y-99812743D01*
X134530048Y-99925639D01*
X134815007Y-100001993D01*
X135107494Y-100040500D01*
X135107501Y-100040500D01*
X135402499Y-100040500D01*
X135402506Y-100040500D01*
X135694993Y-100001993D01*
X135979952Y-99925639D01*
X136252507Y-99812743D01*
X136507994Y-99665238D01*
X136742042Y-99485646D01*
X136950646Y-99277042D01*
X137130238Y-99042994D01*
X137277743Y-98787507D01*
X137390639Y-98514952D01*
X137466993Y-98229993D01*
X137505500Y-97937506D01*
X137505500Y-97703389D01*
X139234500Y-97703389D01*
X139234500Y-97876611D01*
X139261598Y-98047701D01*
X139315127Y-98212445D01*
X139393768Y-98366788D01*
X139495586Y-98506928D01*
X139618072Y-98629414D01*
X139758212Y-98731232D01*
X139912555Y-98809873D01*
X140077299Y-98863402D01*
X140248389Y-98890500D01*
X140248390Y-98890500D01*
X140421610Y-98890500D01*
X140421611Y-98890500D01*
X140592701Y-98863402D01*
X140757445Y-98809873D01*
X140911788Y-98731232D01*
X141051928Y-98629414D01*
X141174414Y-98506928D01*
X141276232Y-98366788D01*
X141354873Y-98212445D01*
X141408402Y-98047701D01*
X141435500Y-97876611D01*
X141435500Y-97703389D01*
X148449500Y-97703389D01*
X148449500Y-97876611D01*
X148476598Y-98047701D01*
X148530127Y-98212445D01*
X148608768Y-98366788D01*
X148710586Y-98506928D01*
X148833072Y-98629414D01*
X148973212Y-98731232D01*
X149127555Y-98809873D01*
X149292299Y-98863402D01*
X149463389Y-98890500D01*
X149463390Y-98890500D01*
X149636610Y-98890500D01*
X149636611Y-98890500D01*
X149807701Y-98863402D01*
X149972445Y-98809873D01*
X150126788Y-98731232D01*
X150266928Y-98629414D01*
X150389414Y-98506928D01*
X150491232Y-98366788D01*
X150569873Y-98212445D01*
X150623402Y-98047701D01*
X150650500Y-97876611D01*
X150650500Y-97703389D01*
X150640854Y-97642486D01*
X152379500Y-97642486D01*
X152379500Y-97937513D01*
X152411571Y-98181113D01*
X152418007Y-98229993D01*
X152492212Y-98506930D01*
X152494361Y-98514951D01*
X152494364Y-98514961D01*
X152607254Y-98787500D01*
X152607258Y-98787510D01*
X152754761Y-99042993D01*
X152934352Y-99277040D01*
X152934358Y-99277047D01*
X153142952Y-99485641D01*
X153142959Y-99485647D01*
X153377006Y-99665238D01*
X153632489Y-99812741D01*
X153632490Y-99812741D01*
X153632493Y-99812743D01*
X153905048Y-99925639D01*
X154190007Y-100001993D01*
X154482494Y-100040500D01*
X154482501Y-100040500D01*
X154777499Y-100040500D01*
X154777506Y-100040500D01*
X155069993Y-100001993D01*
X155354952Y-99925639D01*
X155627507Y-99812743D01*
X155882994Y-99665238D01*
X156117042Y-99485646D01*
X156325646Y-99277042D01*
X156505238Y-99042994D01*
X156652743Y-98787507D01*
X156765639Y-98514952D01*
X156841993Y-98229993D01*
X156880500Y-97937506D01*
X156880500Y-97703389D01*
X158609500Y-97703389D01*
X158609500Y-97876611D01*
X158636598Y-98047701D01*
X158690127Y-98212445D01*
X158768768Y-98366788D01*
X158870586Y-98506928D01*
X158993072Y-98629414D01*
X159133212Y-98731232D01*
X159287555Y-98809873D01*
X159452299Y-98863402D01*
X159623389Y-98890500D01*
X159623390Y-98890500D01*
X159796610Y-98890500D01*
X159796611Y-98890500D01*
X159967701Y-98863402D01*
X160132445Y-98809873D01*
X160286788Y-98731232D01*
X160426928Y-98629414D01*
X160549414Y-98506928D01*
X160651232Y-98366788D01*
X160729873Y-98212445D01*
X160783402Y-98047701D01*
X160810500Y-97876611D01*
X160810500Y-97703389D01*
X167499500Y-97703389D01*
X167499500Y-97876611D01*
X167526598Y-98047701D01*
X167580127Y-98212445D01*
X167658768Y-98366788D01*
X167760586Y-98506928D01*
X167883072Y-98629414D01*
X168023212Y-98731232D01*
X168177555Y-98809873D01*
X168342299Y-98863402D01*
X168513389Y-98890500D01*
X168513390Y-98890500D01*
X168686610Y-98890500D01*
X168686611Y-98890500D01*
X168857701Y-98863402D01*
X169022445Y-98809873D01*
X169176788Y-98731232D01*
X169316928Y-98629414D01*
X169439414Y-98506928D01*
X169541232Y-98366788D01*
X169619873Y-98212445D01*
X169673402Y-98047701D01*
X169700500Y-97876611D01*
X169700500Y-97703389D01*
X169690854Y-97642486D01*
X171429500Y-97642486D01*
X171429500Y-97937513D01*
X171461571Y-98181113D01*
X171468007Y-98229993D01*
X171542212Y-98506930D01*
X171544361Y-98514951D01*
X171544364Y-98514961D01*
X171657254Y-98787500D01*
X171657258Y-98787510D01*
X171804761Y-99042993D01*
X171984352Y-99277040D01*
X171984358Y-99277047D01*
X172192952Y-99485641D01*
X172192959Y-99485647D01*
X172427006Y-99665238D01*
X172682489Y-99812741D01*
X172682490Y-99812741D01*
X172682493Y-99812743D01*
X172955048Y-99925639D01*
X173240007Y-100001993D01*
X173532494Y-100040500D01*
X173532501Y-100040500D01*
X173827499Y-100040500D01*
X173827506Y-100040500D01*
X174119993Y-100001993D01*
X174404952Y-99925639D01*
X174677507Y-99812743D01*
X174932994Y-99665238D01*
X175167042Y-99485646D01*
X175375646Y-99277042D01*
X175555238Y-99042994D01*
X175702743Y-98787507D01*
X175815639Y-98514952D01*
X175891993Y-98229993D01*
X175930500Y-97937506D01*
X175930500Y-97703389D01*
X177659500Y-97703389D01*
X177659500Y-97876611D01*
X177686598Y-98047701D01*
X177740127Y-98212445D01*
X177818768Y-98366788D01*
X177920586Y-98506928D01*
X178043072Y-98629414D01*
X178183212Y-98731232D01*
X178337555Y-98809873D01*
X178502299Y-98863402D01*
X178673389Y-98890500D01*
X178673390Y-98890500D01*
X178846610Y-98890500D01*
X178846611Y-98890500D01*
X179017701Y-98863402D01*
X179182445Y-98809873D01*
X179336788Y-98731232D01*
X179476928Y-98629414D01*
X179599414Y-98506928D01*
X179701232Y-98366788D01*
X179779873Y-98212445D01*
X179833402Y-98047701D01*
X179860500Y-97876611D01*
X179860500Y-97703389D01*
X179833402Y-97532299D01*
X179779873Y-97367555D01*
X179701232Y-97213212D01*
X179599414Y-97073072D01*
X179476928Y-96950586D01*
X179336788Y-96848768D01*
X179182445Y-96770127D01*
X179017701Y-96716598D01*
X179017699Y-96716597D01*
X179017698Y-96716597D01*
X178886271Y-96695781D01*
X178846611Y-96689500D01*
X178673389Y-96689500D01*
X178633728Y-96695781D01*
X178502302Y-96716597D01*
X178337552Y-96770128D01*
X178183211Y-96848768D01*
X178126289Y-96890125D01*
X178043072Y-96950586D01*
X178043070Y-96950588D01*
X178043069Y-96950588D01*
X177920588Y-97073069D01*
X177920588Y-97073070D01*
X177920586Y-97073072D01*
X177880780Y-97127860D01*
X177818768Y-97213211D01*
X177740128Y-97367552D01*
X177740127Y-97367554D01*
X177740127Y-97367555D01*
X177731515Y-97394059D01*
X177686597Y-97532302D01*
X177659500Y-97703389D01*
X175930500Y-97703389D01*
X175930500Y-97642494D01*
X175891993Y-97350007D01*
X175815639Y-97065048D01*
X175702743Y-96792493D01*
X175647309Y-96696479D01*
X175555238Y-96537006D01*
X175375647Y-96302959D01*
X175375641Y-96302952D01*
X175167047Y-96094358D01*
X175167040Y-96094352D01*
X174932993Y-95914761D01*
X174677510Y-95767258D01*
X174677500Y-95767254D01*
X174404961Y-95654364D01*
X174404954Y-95654362D01*
X174404952Y-95654361D01*
X174119993Y-95578007D01*
X174071113Y-95571571D01*
X173827513Y-95539500D01*
X173827506Y-95539500D01*
X173532494Y-95539500D01*
X173532486Y-95539500D01*
X173254085Y-95576153D01*
X173240007Y-95578007D01*
X173065428Y-95624785D01*
X172955048Y-95654361D01*
X172955038Y-95654364D01*
X172682499Y-95767254D01*
X172682489Y-95767258D01*
X172427006Y-95914761D01*
X172192959Y-96094352D01*
X172192952Y-96094358D01*
X171984358Y-96302952D01*
X171984352Y-96302959D01*
X171804761Y-96537006D01*
X171657258Y-96792489D01*
X171657254Y-96792499D01*
X171544364Y-97065038D01*
X171544361Y-97065048D01*
X171468008Y-97350004D01*
X171468006Y-97350015D01*
X171429500Y-97642486D01*
X169690854Y-97642486D01*
X169673402Y-97532299D01*
X169619873Y-97367555D01*
X169541232Y-97213212D01*
X169439414Y-97073072D01*
X169387482Y-97021140D01*
X169353997Y-96959817D01*
X169358981Y-96890125D01*
X169400853Y-96834192D01*
X169466317Y-96809775D01*
X169494561Y-96810986D01*
X169495212Y-96811089D01*
X169495215Y-96811090D01*
X169744038Y-96850500D01*
X169744039Y-96850500D01*
X169995961Y-96850500D01*
X169995962Y-96850500D01*
X170244785Y-96811090D01*
X170484379Y-96733241D01*
X170708845Y-96618870D01*
X170912656Y-96470793D01*
X171090793Y-96292656D01*
X171238870Y-96088845D01*
X171353241Y-95864379D01*
X171431090Y-95624785D01*
X171470500Y-95375962D01*
X171470500Y-95124038D01*
X171431090Y-94875215D01*
X171353241Y-94635621D01*
X171353239Y-94635618D01*
X171353239Y-94635616D01*
X171280935Y-94493713D01*
X171238870Y-94411155D01*
X171165377Y-94310000D01*
X171090798Y-94207350D01*
X171090794Y-94207345D01*
X170912654Y-94029205D01*
X170912649Y-94029201D01*
X170708848Y-93881132D01*
X170708847Y-93881131D01*
X170708845Y-93881130D01*
X170638747Y-93845413D01*
X170484383Y-93766760D01*
X170244785Y-93688910D01*
X170194054Y-93680875D01*
X169995962Y-93649500D01*
X169744038Y-93649500D01*
X169619626Y-93669205D01*
X169495214Y-93688910D01*
X169255616Y-93766760D01*
X169031151Y-93881132D01*
X168827350Y-94029201D01*
X168827345Y-94029205D01*
X168649205Y-94207345D01*
X168649201Y-94207350D01*
X168501132Y-94411151D01*
X168386760Y-94635616D01*
X168308910Y-94875214D01*
X168269500Y-95124038D01*
X168269500Y-95375961D01*
X168308910Y-95624785D01*
X168386760Y-95864383D01*
X168441235Y-95971295D01*
X168488661Y-96064374D01*
X168501132Y-96088848D01*
X168649201Y-96292649D01*
X168649205Y-96292654D01*
X168649207Y-96292656D01*
X168827344Y-96470793D01*
X168827345Y-96470794D01*
X168827344Y-96470794D01*
X168833661Y-96475383D01*
X168876327Y-96530714D01*
X168882305Y-96600327D01*
X168849699Y-96662122D01*
X168788860Y-96696479D01*
X168741378Y-96698174D01*
X168686611Y-96689500D01*
X168513389Y-96689500D01*
X168473728Y-96695781D01*
X168342302Y-96716597D01*
X168177552Y-96770128D01*
X168023211Y-96848768D01*
X167966289Y-96890125D01*
X167883072Y-96950586D01*
X167883070Y-96950588D01*
X167883069Y-96950588D01*
X167760588Y-97073069D01*
X167760588Y-97073070D01*
X167760586Y-97073072D01*
X167720780Y-97127860D01*
X167658768Y-97213211D01*
X167580128Y-97367552D01*
X167580127Y-97367554D01*
X167580127Y-97367555D01*
X167571515Y-97394059D01*
X167526597Y-97532302D01*
X167499500Y-97703389D01*
X160810500Y-97703389D01*
X160783402Y-97532299D01*
X160729873Y-97367555D01*
X160651232Y-97213212D01*
X160549414Y-97073072D01*
X160426928Y-96950586D01*
X160286788Y-96848768D01*
X160132445Y-96770127D01*
X159967701Y-96716598D01*
X159967699Y-96716597D01*
X159967698Y-96716597D01*
X159836271Y-96695781D01*
X159796611Y-96689500D01*
X159623389Y-96689500D01*
X159583728Y-96695781D01*
X159452302Y-96716597D01*
X159287552Y-96770128D01*
X159133211Y-96848768D01*
X159076289Y-96890125D01*
X158993072Y-96950586D01*
X158993070Y-96950588D01*
X158993069Y-96950588D01*
X158870588Y-97073069D01*
X158870588Y-97073070D01*
X158870586Y-97073072D01*
X158830780Y-97127860D01*
X158768768Y-97213211D01*
X158690128Y-97367552D01*
X158690127Y-97367554D01*
X158690127Y-97367555D01*
X158681515Y-97394059D01*
X158636597Y-97532302D01*
X158609500Y-97703389D01*
X156880500Y-97703389D01*
X156880500Y-97642494D01*
X156841993Y-97350007D01*
X156765639Y-97065048D01*
X156652743Y-96792493D01*
X156597309Y-96696479D01*
X156505238Y-96537006D01*
X156325647Y-96302959D01*
X156325641Y-96302952D01*
X156117047Y-96094358D01*
X156117040Y-96094352D01*
X155882993Y-95914761D01*
X155627510Y-95767258D01*
X155627500Y-95767254D01*
X155354961Y-95654364D01*
X155354954Y-95654362D01*
X155354952Y-95654361D01*
X155069993Y-95578007D01*
X155021113Y-95571571D01*
X154777513Y-95539500D01*
X154777506Y-95539500D01*
X154482494Y-95539500D01*
X154482486Y-95539500D01*
X154204085Y-95576153D01*
X154190007Y-95578007D01*
X154015428Y-95624785D01*
X153905048Y-95654361D01*
X153905038Y-95654364D01*
X153632499Y-95767254D01*
X153632489Y-95767258D01*
X153377006Y-95914761D01*
X153142959Y-96094352D01*
X153142952Y-96094358D01*
X152934358Y-96302952D01*
X152934352Y-96302959D01*
X152754761Y-96537006D01*
X152607258Y-96792489D01*
X152607254Y-96792499D01*
X152494364Y-97065038D01*
X152494361Y-97065048D01*
X152418008Y-97350004D01*
X152418006Y-97350015D01*
X152379500Y-97642486D01*
X150640854Y-97642486D01*
X150623402Y-97532299D01*
X150569873Y-97367555D01*
X150491232Y-97213212D01*
X150389414Y-97073072D01*
X150337482Y-97021140D01*
X150303997Y-96959817D01*
X150308981Y-96890125D01*
X150350853Y-96834192D01*
X150416317Y-96809775D01*
X150444561Y-96810986D01*
X150445212Y-96811089D01*
X150445215Y-96811090D01*
X150694038Y-96850500D01*
X150694039Y-96850500D01*
X150945961Y-96850500D01*
X150945962Y-96850500D01*
X151194785Y-96811090D01*
X151434379Y-96733241D01*
X151658845Y-96618870D01*
X151862656Y-96470793D01*
X152040793Y-96292656D01*
X152188870Y-96088845D01*
X152303241Y-95864379D01*
X152381090Y-95624785D01*
X152420500Y-95375962D01*
X152420500Y-95124038D01*
X152381090Y-94875215D01*
X152303241Y-94635621D01*
X152303239Y-94635618D01*
X152303239Y-94635616D01*
X152230935Y-94493713D01*
X152188870Y-94411155D01*
X152115377Y-94310000D01*
X152040798Y-94207350D01*
X152040794Y-94207345D01*
X151862654Y-94029205D01*
X151862649Y-94029201D01*
X151658848Y-93881132D01*
X151658847Y-93881131D01*
X151658845Y-93881130D01*
X151588747Y-93845413D01*
X151434383Y-93766760D01*
X151194785Y-93688910D01*
X151144054Y-93680875D01*
X150945962Y-93649500D01*
X150694038Y-93649500D01*
X150569626Y-93669205D01*
X150445214Y-93688910D01*
X150205616Y-93766760D01*
X149981151Y-93881132D01*
X149777350Y-94029201D01*
X149777345Y-94029205D01*
X149599205Y-94207345D01*
X149599201Y-94207350D01*
X149451132Y-94411151D01*
X149336760Y-94635616D01*
X149258910Y-94875214D01*
X149219500Y-95124038D01*
X149219500Y-95375961D01*
X149258910Y-95624785D01*
X149336760Y-95864383D01*
X149391235Y-95971295D01*
X149438661Y-96064374D01*
X149451132Y-96088848D01*
X149599201Y-96292649D01*
X149599205Y-96292654D01*
X149599207Y-96292656D01*
X149777344Y-96470793D01*
X149777345Y-96470794D01*
X149777344Y-96470794D01*
X149783661Y-96475383D01*
X149826327Y-96530714D01*
X149832305Y-96600327D01*
X149799699Y-96662122D01*
X149738860Y-96696479D01*
X149691378Y-96698174D01*
X149636611Y-96689500D01*
X149463389Y-96689500D01*
X149423728Y-96695781D01*
X149292302Y-96716597D01*
X149127552Y-96770128D01*
X148973211Y-96848768D01*
X148916289Y-96890125D01*
X148833072Y-96950586D01*
X148833070Y-96950588D01*
X148833069Y-96950588D01*
X148710588Y-97073069D01*
X148710588Y-97073070D01*
X148710586Y-97073072D01*
X148670780Y-97127860D01*
X148608768Y-97213211D01*
X148530128Y-97367552D01*
X148530127Y-97367554D01*
X148530127Y-97367555D01*
X148521515Y-97394059D01*
X148476597Y-97532302D01*
X148449500Y-97703389D01*
X141435500Y-97703389D01*
X141408402Y-97532299D01*
X141354873Y-97367555D01*
X141276232Y-97213212D01*
X141174414Y-97073072D01*
X141051928Y-96950586D01*
X140911788Y-96848768D01*
X140757445Y-96770127D01*
X140592701Y-96716598D01*
X140592699Y-96716597D01*
X140592698Y-96716597D01*
X140461271Y-96695781D01*
X140421611Y-96689500D01*
X140248389Y-96689500D01*
X140208728Y-96695781D01*
X140077302Y-96716597D01*
X139912552Y-96770128D01*
X139758211Y-96848768D01*
X139701289Y-96890125D01*
X139618072Y-96950586D01*
X139618070Y-96950588D01*
X139618069Y-96950588D01*
X139495588Y-97073069D01*
X139495588Y-97073070D01*
X139495586Y-97073072D01*
X139455780Y-97127860D01*
X139393768Y-97213211D01*
X139315128Y-97367552D01*
X139315127Y-97367554D01*
X139315127Y-97367555D01*
X139306515Y-97394059D01*
X139261597Y-97532302D01*
X139234500Y-97703389D01*
X137505500Y-97703389D01*
X137505500Y-97642494D01*
X137466993Y-97350007D01*
X137390639Y-97065048D01*
X137277743Y-96792493D01*
X137222309Y-96696479D01*
X137130238Y-96537006D01*
X136950647Y-96302959D01*
X136950641Y-96302952D01*
X136742047Y-96094358D01*
X136742040Y-96094352D01*
X136507993Y-95914761D01*
X136252510Y-95767258D01*
X136252500Y-95767254D01*
X135979961Y-95654364D01*
X135979954Y-95654362D01*
X135979952Y-95654361D01*
X135694993Y-95578007D01*
X135646113Y-95571571D01*
X135402513Y-95539500D01*
X135402506Y-95539500D01*
X135107494Y-95539500D01*
X135107486Y-95539500D01*
X134829085Y-95576153D01*
X134815007Y-95578007D01*
X134640428Y-95624785D01*
X134530048Y-95654361D01*
X134530038Y-95654364D01*
X134257499Y-95767254D01*
X134257489Y-95767258D01*
X134002006Y-95914761D01*
X133767959Y-96094352D01*
X133767952Y-96094358D01*
X133559358Y-96302952D01*
X133559352Y-96302959D01*
X133379761Y-96537006D01*
X133232258Y-96792489D01*
X133232254Y-96792499D01*
X133119364Y-97065038D01*
X133119361Y-97065048D01*
X133043008Y-97350004D01*
X133043006Y-97350015D01*
X133004500Y-97642486D01*
X131265854Y-97642486D01*
X131248402Y-97532299D01*
X131194873Y-97367555D01*
X131116232Y-97213212D01*
X131014414Y-97073072D01*
X130962482Y-97021140D01*
X130928997Y-96959817D01*
X130933981Y-96890125D01*
X130975853Y-96834192D01*
X131041317Y-96809775D01*
X131069561Y-96810986D01*
X131070212Y-96811089D01*
X131070215Y-96811090D01*
X131319038Y-96850500D01*
X131319039Y-96850500D01*
X131570961Y-96850500D01*
X131570962Y-96850500D01*
X131819785Y-96811090D01*
X132059379Y-96733241D01*
X132283845Y-96618870D01*
X132487656Y-96470793D01*
X132665793Y-96292656D01*
X132813870Y-96088845D01*
X132928241Y-95864379D01*
X133006090Y-95624785D01*
X133045500Y-95375962D01*
X133045500Y-95124038D01*
X133006090Y-94875215D01*
X132928241Y-94635621D01*
X132928239Y-94635618D01*
X132928239Y-94635616D01*
X132855935Y-94493713D01*
X132813870Y-94411155D01*
X132740377Y-94310000D01*
X132665798Y-94207350D01*
X132665794Y-94207345D01*
X132487654Y-94029205D01*
X132487649Y-94029201D01*
X132283848Y-93881132D01*
X132283847Y-93881131D01*
X132283845Y-93881130D01*
X132213747Y-93845413D01*
X132059383Y-93766760D01*
X131819785Y-93688910D01*
X131769054Y-93680875D01*
X131570962Y-93649500D01*
X131319038Y-93649500D01*
X131194626Y-93669205D01*
X131070214Y-93688910D01*
X130830616Y-93766760D01*
X130606151Y-93881132D01*
X130402350Y-94029201D01*
X130402345Y-94029205D01*
X130224205Y-94207345D01*
X130224201Y-94207350D01*
X130076132Y-94411151D01*
X129961760Y-94635616D01*
X129883910Y-94875214D01*
X129844500Y-95124038D01*
X129844500Y-95375961D01*
X129883910Y-95624785D01*
X129961760Y-95864383D01*
X130016235Y-95971295D01*
X130063661Y-96064374D01*
X130076132Y-96088848D01*
X130224201Y-96292649D01*
X130224205Y-96292654D01*
X130224207Y-96292656D01*
X130402344Y-96470793D01*
X130402345Y-96470794D01*
X130402344Y-96470794D01*
X130408661Y-96475383D01*
X130451327Y-96530714D01*
X130457305Y-96600327D01*
X130424699Y-96662122D01*
X130363860Y-96696479D01*
X130316378Y-96698174D01*
X130261611Y-96689500D01*
X130088389Y-96689500D01*
X130048728Y-96695781D01*
X129917302Y-96716597D01*
X129752552Y-96770128D01*
X129598211Y-96848768D01*
X129541289Y-96890125D01*
X129458072Y-96950586D01*
X129458070Y-96950588D01*
X129458069Y-96950588D01*
X129335588Y-97073069D01*
X129335588Y-97073070D01*
X129335586Y-97073072D01*
X129295780Y-97127860D01*
X129233768Y-97213211D01*
X129155128Y-97367552D01*
X129155127Y-97367554D01*
X129155127Y-97367555D01*
X129146515Y-97394059D01*
X129101597Y-97532302D01*
X129074500Y-97703389D01*
X122385500Y-97703389D01*
X122358402Y-97532299D01*
X122304873Y-97367555D01*
X122226232Y-97213212D01*
X122124414Y-97073072D01*
X122001928Y-96950586D01*
X121861788Y-96848768D01*
X121707445Y-96770127D01*
X121542701Y-96716598D01*
X121542699Y-96716597D01*
X121542698Y-96716597D01*
X121411271Y-96695781D01*
X121371611Y-96689500D01*
X121198389Y-96689500D01*
X121158728Y-96695781D01*
X121027302Y-96716597D01*
X120862552Y-96770128D01*
X120708211Y-96848768D01*
X120651289Y-96890125D01*
X120568072Y-96950586D01*
X120568070Y-96950588D01*
X120568069Y-96950588D01*
X120445588Y-97073069D01*
X120445588Y-97073070D01*
X120445586Y-97073072D01*
X120405780Y-97127860D01*
X120343768Y-97213211D01*
X120265128Y-97367552D01*
X120265127Y-97367554D01*
X120265127Y-97367555D01*
X120256515Y-97394059D01*
X120211597Y-97532302D01*
X120184500Y-97703389D01*
X118455500Y-97703389D01*
X118455500Y-97642494D01*
X118416993Y-97350007D01*
X118340639Y-97065048D01*
X118227743Y-96792493D01*
X118172309Y-96696479D01*
X118080238Y-96537006D01*
X117900647Y-96302959D01*
X117900641Y-96302952D01*
X117692047Y-96094358D01*
X117692040Y-96094352D01*
X117457993Y-95914761D01*
X117202510Y-95767258D01*
X117202500Y-95767254D01*
X116929961Y-95654364D01*
X116929954Y-95654362D01*
X116929952Y-95654361D01*
X116644993Y-95578007D01*
X116596113Y-95571571D01*
X116352513Y-95539500D01*
X116352506Y-95539500D01*
X116057494Y-95539500D01*
X116057486Y-95539500D01*
X115779085Y-95576153D01*
X115765007Y-95578007D01*
X115590428Y-95624785D01*
X115480048Y-95654361D01*
X115480038Y-95654364D01*
X115207499Y-95767254D01*
X115207489Y-95767258D01*
X114952006Y-95914761D01*
X114717959Y-96094352D01*
X114717952Y-96094358D01*
X114509358Y-96302952D01*
X114509352Y-96302959D01*
X114329761Y-96537006D01*
X114182258Y-96792489D01*
X114182254Y-96792499D01*
X114069364Y-97065038D01*
X114069361Y-97065048D01*
X113993008Y-97350004D01*
X113993006Y-97350015D01*
X113954500Y-97642486D01*
X112215854Y-97642486D01*
X112198402Y-97532299D01*
X112144873Y-97367555D01*
X112066232Y-97213212D01*
X111964414Y-97073072D01*
X111912482Y-97021140D01*
X111878997Y-96959817D01*
X111883981Y-96890125D01*
X111925853Y-96834192D01*
X111991317Y-96809775D01*
X112019561Y-96810986D01*
X112020212Y-96811089D01*
X112020215Y-96811090D01*
X112269038Y-96850500D01*
X112269039Y-96850500D01*
X112520961Y-96850500D01*
X112520962Y-96850500D01*
X112769785Y-96811090D01*
X113009379Y-96733241D01*
X113233845Y-96618870D01*
X113437656Y-96470793D01*
X113615793Y-96292656D01*
X113763870Y-96088845D01*
X113878241Y-95864379D01*
X113956090Y-95624785D01*
X113995500Y-95375962D01*
X113995500Y-95124038D01*
X113956090Y-94875215D01*
X113878241Y-94635621D01*
X113878239Y-94635618D01*
X113878239Y-94635616D01*
X113805935Y-94493713D01*
X113763870Y-94411155D01*
X113690377Y-94310000D01*
X113615798Y-94207350D01*
X113615794Y-94207345D01*
X113437654Y-94029205D01*
X113437649Y-94029201D01*
X113233848Y-93881132D01*
X113233847Y-93881131D01*
X113233845Y-93881130D01*
X113163747Y-93845413D01*
X113009383Y-93766760D01*
X112769785Y-93688910D01*
X112719054Y-93680875D01*
X112520962Y-93649500D01*
X112269038Y-93649500D01*
X112144626Y-93669205D01*
X112020214Y-93688910D01*
X111780616Y-93766760D01*
X111556151Y-93881132D01*
X111352350Y-94029201D01*
X111352345Y-94029205D01*
X111174205Y-94207345D01*
X111174201Y-94207350D01*
X111026132Y-94411151D01*
X110911760Y-94635616D01*
X110833910Y-94875214D01*
X110794500Y-95124038D01*
X110794500Y-95375961D01*
X110833910Y-95624785D01*
X110911760Y-95864383D01*
X110966235Y-95971295D01*
X111013661Y-96064374D01*
X111026132Y-96088848D01*
X111174201Y-96292649D01*
X111174205Y-96292654D01*
X111174207Y-96292656D01*
X111352344Y-96470793D01*
X111352345Y-96470794D01*
X111352344Y-96470794D01*
X111358661Y-96475383D01*
X111401327Y-96530714D01*
X111407305Y-96600327D01*
X111374699Y-96662122D01*
X111313860Y-96696479D01*
X111266378Y-96698174D01*
X111211611Y-96689500D01*
X111038389Y-96689500D01*
X110998728Y-96695781D01*
X110867302Y-96716597D01*
X110702552Y-96770128D01*
X110548211Y-96848768D01*
X110491289Y-96890125D01*
X110408072Y-96950586D01*
X110408070Y-96950588D01*
X110408069Y-96950588D01*
X110285588Y-97073069D01*
X110285588Y-97073070D01*
X110285586Y-97073072D01*
X110245780Y-97127860D01*
X110183768Y-97213211D01*
X110105128Y-97367552D01*
X110105127Y-97367554D01*
X110105127Y-97367555D01*
X110096515Y-97394059D01*
X110051597Y-97532302D01*
X110024500Y-97703389D01*
X105112600Y-97703389D01*
X105112600Y-92584071D01*
X117145000Y-92584071D01*
X117145000Y-92835928D01*
X117184397Y-93084669D01*
X117262219Y-93324184D01*
X117376557Y-93548583D01*
X117450748Y-93650697D01*
X117450748Y-93650698D01*
X118067421Y-93034024D01*
X118080359Y-93065258D01*
X118162437Y-93188097D01*
X118266903Y-93292563D01*
X118389742Y-93374641D01*
X118420974Y-93387577D01*
X117804300Y-94004250D01*
X117906416Y-94078442D01*
X118130815Y-94192780D01*
X118370330Y-94270602D01*
X118619072Y-94310000D01*
X118870928Y-94310000D01*
X119119669Y-94270602D01*
X119359184Y-94192780D01*
X119583575Y-94078446D01*
X119583581Y-94078442D01*
X119685697Y-94004250D01*
X119685698Y-94004250D01*
X119069025Y-93387578D01*
X119100258Y-93374641D01*
X119223097Y-93292563D01*
X119327563Y-93188097D01*
X119409641Y-93065258D01*
X119422578Y-93034025D01*
X120039250Y-93650698D01*
X120039250Y-93650697D01*
X120113442Y-93548581D01*
X120113446Y-93548575D01*
X120227780Y-93324184D01*
X120305602Y-93084669D01*
X120345000Y-92835928D01*
X120345000Y-92584071D01*
X136195000Y-92584071D01*
X136195000Y-92835928D01*
X136234397Y-93084669D01*
X136312219Y-93324184D01*
X136426557Y-93548583D01*
X136500748Y-93650697D01*
X136500748Y-93650698D01*
X137117421Y-93034024D01*
X137130359Y-93065258D01*
X137212437Y-93188097D01*
X137316903Y-93292563D01*
X137439742Y-93374641D01*
X137470974Y-93387577D01*
X136854300Y-94004250D01*
X136956416Y-94078442D01*
X137180815Y-94192780D01*
X137420330Y-94270602D01*
X137669072Y-94310000D01*
X137920928Y-94310000D01*
X138169669Y-94270602D01*
X138409184Y-94192780D01*
X138633575Y-94078446D01*
X138633581Y-94078442D01*
X138735697Y-94004250D01*
X138735698Y-94004250D01*
X138119025Y-93387578D01*
X138150258Y-93374641D01*
X138273097Y-93292563D01*
X138377563Y-93188097D01*
X138459641Y-93065258D01*
X138472578Y-93034025D01*
X139089250Y-93650698D01*
X139089250Y-93650697D01*
X139163442Y-93548581D01*
X139163446Y-93548575D01*
X139277780Y-93324184D01*
X139355602Y-93084669D01*
X139395000Y-92835928D01*
X139395000Y-92584071D01*
X155570000Y-92584071D01*
X155570000Y-92835928D01*
X155609397Y-93084669D01*
X155687219Y-93324184D01*
X155801557Y-93548583D01*
X155875748Y-93650697D01*
X155875748Y-93650698D01*
X156492421Y-93034024D01*
X156505359Y-93065258D01*
X156587437Y-93188097D01*
X156691903Y-93292563D01*
X156814742Y-93374641D01*
X156845974Y-93387577D01*
X156229300Y-94004250D01*
X156331416Y-94078442D01*
X156555815Y-94192780D01*
X156795330Y-94270602D01*
X157044072Y-94310000D01*
X157295928Y-94310000D01*
X157544669Y-94270602D01*
X157784184Y-94192780D01*
X158008575Y-94078446D01*
X158008581Y-94078442D01*
X158110697Y-94004250D01*
X158110698Y-94004250D01*
X157494025Y-93387578D01*
X157525258Y-93374641D01*
X157648097Y-93292563D01*
X157752563Y-93188097D01*
X157834641Y-93065258D01*
X157847577Y-93034025D01*
X158464250Y-93650698D01*
X158464250Y-93650697D01*
X158538442Y-93548581D01*
X158538446Y-93548575D01*
X158652780Y-93324184D01*
X158730602Y-93084669D01*
X158770000Y-92835928D01*
X158770000Y-92584071D01*
X174620000Y-92584071D01*
X174620000Y-92835928D01*
X174659397Y-93084669D01*
X174737219Y-93324184D01*
X174851557Y-93548583D01*
X174925748Y-93650697D01*
X174925748Y-93650698D01*
X175542421Y-93034024D01*
X175555359Y-93065258D01*
X175637437Y-93188097D01*
X175741903Y-93292563D01*
X175864742Y-93374641D01*
X175895974Y-93387577D01*
X175279300Y-94004250D01*
X175381416Y-94078442D01*
X175605815Y-94192780D01*
X175845330Y-94270602D01*
X176094072Y-94310000D01*
X176345928Y-94310000D01*
X176594669Y-94270602D01*
X176834184Y-94192780D01*
X177058575Y-94078446D01*
X177058581Y-94078442D01*
X177160697Y-94004250D01*
X177160698Y-94004250D01*
X176544025Y-93387578D01*
X176575258Y-93374641D01*
X176698097Y-93292563D01*
X176802563Y-93188097D01*
X176884641Y-93065258D01*
X176897578Y-93034025D01*
X177514250Y-93650698D01*
X177514250Y-93650697D01*
X177588442Y-93548581D01*
X177588446Y-93548575D01*
X177702780Y-93324184D01*
X177780602Y-93084669D01*
X177820000Y-92835928D01*
X177820000Y-92584071D01*
X177780602Y-92335330D01*
X177702780Y-92095815D01*
X177588442Y-91871416D01*
X177514250Y-91769301D01*
X177514250Y-91769300D01*
X176897577Y-92385973D01*
X176884641Y-92354742D01*
X176802563Y-92231903D01*
X176698097Y-92127437D01*
X176575258Y-92045359D01*
X176544024Y-92032421D01*
X177160698Y-91415748D01*
X177058583Y-91341557D01*
X176834184Y-91227219D01*
X176594669Y-91149397D01*
X176345928Y-91110000D01*
X176094072Y-91110000D01*
X175845330Y-91149397D01*
X175605815Y-91227219D01*
X175381413Y-91341559D01*
X175279301Y-91415747D01*
X175279300Y-91415748D01*
X175895974Y-92032421D01*
X175864742Y-92045359D01*
X175741903Y-92127437D01*
X175637437Y-92231903D01*
X175555359Y-92354742D01*
X175542421Y-92385974D01*
X174925748Y-91769300D01*
X174925747Y-91769301D01*
X174851559Y-91871413D01*
X174737219Y-92095815D01*
X174659397Y-92335330D01*
X174620000Y-92584071D01*
X158770000Y-92584071D01*
X158730602Y-92335330D01*
X158652780Y-92095815D01*
X158538442Y-91871416D01*
X158464250Y-91769301D01*
X158464250Y-91769300D01*
X157847577Y-92385973D01*
X157834641Y-92354742D01*
X157752563Y-92231903D01*
X157648097Y-92127437D01*
X157525258Y-92045359D01*
X157494024Y-92032421D01*
X158110698Y-91415748D01*
X158008583Y-91341557D01*
X157784184Y-91227219D01*
X157544669Y-91149397D01*
X157295928Y-91110000D01*
X157044072Y-91110000D01*
X156795330Y-91149397D01*
X156555815Y-91227219D01*
X156331413Y-91341559D01*
X156229301Y-91415747D01*
X156229300Y-91415748D01*
X156845974Y-92032421D01*
X156814742Y-92045359D01*
X156691903Y-92127437D01*
X156587437Y-92231903D01*
X156505359Y-92354742D01*
X156492421Y-92385974D01*
X155875748Y-91769300D01*
X155875747Y-91769301D01*
X155801559Y-91871413D01*
X155687219Y-92095815D01*
X155609397Y-92335330D01*
X155570000Y-92584071D01*
X139395000Y-92584071D01*
X139355602Y-92335330D01*
X139277780Y-92095815D01*
X139163442Y-91871416D01*
X139089250Y-91769301D01*
X139089250Y-91769300D01*
X138472577Y-92385973D01*
X138459641Y-92354742D01*
X138377563Y-92231903D01*
X138273097Y-92127437D01*
X138150258Y-92045359D01*
X138119024Y-92032421D01*
X138735698Y-91415748D01*
X138633583Y-91341557D01*
X138409184Y-91227219D01*
X138169669Y-91149397D01*
X137920928Y-91110000D01*
X137669072Y-91110000D01*
X137420330Y-91149397D01*
X137180815Y-91227219D01*
X136956413Y-91341559D01*
X136854301Y-91415747D01*
X136854300Y-91415748D01*
X137470974Y-92032421D01*
X137439742Y-92045359D01*
X137316903Y-92127437D01*
X137212437Y-92231903D01*
X137130359Y-92354742D01*
X137117421Y-92385974D01*
X136500748Y-91769300D01*
X136500747Y-91769301D01*
X136426559Y-91871413D01*
X136312219Y-92095815D01*
X136234397Y-92335330D01*
X136195000Y-92584071D01*
X120345000Y-92584071D01*
X120305602Y-92335330D01*
X120227780Y-92095815D01*
X120113442Y-91871416D01*
X120039250Y-91769301D01*
X120039250Y-91769300D01*
X119422577Y-92385973D01*
X119409641Y-92354742D01*
X119327563Y-92231903D01*
X119223097Y-92127437D01*
X119100258Y-92045359D01*
X119069024Y-92032421D01*
X119685698Y-91415748D01*
X119583583Y-91341557D01*
X119359184Y-91227219D01*
X119119669Y-91149397D01*
X118870928Y-91110000D01*
X118619072Y-91110000D01*
X118370330Y-91149397D01*
X118130815Y-91227219D01*
X117906413Y-91341559D01*
X117804301Y-91415747D01*
X117804300Y-91415748D01*
X118420974Y-92032421D01*
X118389742Y-92045359D01*
X118266903Y-92127437D01*
X118162437Y-92231903D01*
X118080359Y-92354742D01*
X118067421Y-92385974D01*
X117450748Y-91769300D01*
X117450747Y-91769301D01*
X117376559Y-91871413D01*
X117262219Y-92095815D01*
X117184397Y-92335330D01*
X117145000Y-92584071D01*
X105112600Y-92584071D01*
X105112600Y-89503065D01*
X105132285Y-89436026D01*
X105133498Y-89434174D01*
X105221490Y-89302485D01*
X105221490Y-89302484D01*
X105221494Y-89302479D01*
X105281837Y-89156797D01*
X105312600Y-89002142D01*
X105312600Y-88844458D01*
X105312600Y-88844455D01*
X105312599Y-88844453D01*
X105281838Y-88689810D01*
X105281837Y-88689803D01*
X105275711Y-88675014D01*
X105221497Y-88544127D01*
X105221490Y-88544114D01*
X105133889Y-88413011D01*
X105133886Y-88413007D01*
X105022392Y-88301513D01*
X105022388Y-88301510D01*
X104891285Y-88213909D01*
X104891272Y-88213902D01*
X104745601Y-88153564D01*
X104745589Y-88153561D01*
X104590945Y-88122800D01*
X104590942Y-88122800D01*
X104433258Y-88122800D01*
X104433255Y-88122800D01*
X104278610Y-88153561D01*
X104278598Y-88153564D01*
X104132927Y-88213902D01*
X104132914Y-88213909D01*
X104001811Y-88301510D01*
X104001807Y-88301513D01*
X103893781Y-88409540D01*
X103832458Y-88443025D01*
X103762766Y-88438041D01*
X103706833Y-88396169D01*
X103682416Y-88330705D01*
X103682100Y-88321859D01*
X103682100Y-87643853D01*
X189127500Y-87643853D01*
X189127500Y-87801546D01*
X189158261Y-87956189D01*
X189158264Y-87956201D01*
X189218602Y-88101872D01*
X189218609Y-88101885D01*
X189306602Y-88233574D01*
X189327480Y-88300251D01*
X189327500Y-88302465D01*
X189327500Y-104953130D01*
X189327499Y-104953148D01*
X189327499Y-105118854D01*
X189327498Y-105118854D01*
X189327499Y-105118857D01*
X189367366Y-105267642D01*
X189368424Y-105271587D01*
X189381652Y-105294498D01*
X189381653Y-105294500D01*
X189447477Y-105408512D01*
X189447481Y-105408517D01*
X189566349Y-105527385D01*
X189566355Y-105527390D01*
X190278725Y-106239760D01*
X190312210Y-106301083D01*
X190312661Y-106303249D01*
X190343561Y-106458591D01*
X190343564Y-106458601D01*
X190403902Y-106604272D01*
X190403909Y-106604285D01*
X190491510Y-106735388D01*
X190491513Y-106735392D01*
X190603007Y-106846886D01*
X190603011Y-106846889D01*
X190734114Y-106934490D01*
X190734127Y-106934497D01*
X190879798Y-106994835D01*
X190879803Y-106994837D01*
X191034453Y-107025599D01*
X191034456Y-107025600D01*
X191034458Y-107025600D01*
X191192144Y-107025600D01*
X191192145Y-107025599D01*
X191346797Y-106994837D01*
X191492479Y-106934494D01*
X191623589Y-106846889D01*
X191735089Y-106735389D01*
X191822694Y-106604279D01*
X191883037Y-106458597D01*
X191913800Y-106303942D01*
X191913800Y-106146258D01*
X191913800Y-106146255D01*
X191886399Y-106008505D01*
X191892626Y-105938913D01*
X191935489Y-105883736D01*
X192001378Y-105860491D01*
X192069375Y-105876559D01*
X192095697Y-105896632D01*
X194033825Y-107834760D01*
X194067310Y-107896083D01*
X194067761Y-107898249D01*
X194098661Y-108053591D01*
X194098664Y-108053601D01*
X194159002Y-108199272D01*
X194159009Y-108199285D01*
X194246610Y-108330388D01*
X194246613Y-108330392D01*
X194358107Y-108441886D01*
X194358111Y-108441889D01*
X194489214Y-108529490D01*
X194489227Y-108529497D01*
X194634898Y-108589835D01*
X194634903Y-108589837D01*
X194789553Y-108620599D01*
X194789556Y-108620600D01*
X194789558Y-108620600D01*
X194947244Y-108620600D01*
X194947245Y-108620599D01*
X195101897Y-108589837D01*
X195247579Y-108529494D01*
X195378689Y-108441889D01*
X195490189Y-108330389D01*
X195577794Y-108199279D01*
X195638137Y-108053597D01*
X195668900Y-107898942D01*
X195668900Y-107741258D01*
X195668900Y-107741255D01*
X195668899Y-107741253D01*
X195645353Y-107622880D01*
X195638137Y-107586603D01*
X195600675Y-107496161D01*
X195577797Y-107440927D01*
X195577790Y-107440914D01*
X195490189Y-107309811D01*
X195490186Y-107309807D01*
X195378692Y-107198313D01*
X195378688Y-107198310D01*
X195247585Y-107110709D01*
X195247572Y-107110702D01*
X195101901Y-107050364D01*
X195101891Y-107050361D01*
X194946551Y-107019462D01*
X194884641Y-106987077D01*
X194883062Y-106985526D01*
X191514819Y-103617283D01*
X191481334Y-103555960D01*
X191478500Y-103529602D01*
X191478500Y-87684165D01*
X191498185Y-87617126D01*
X191499398Y-87615274D01*
X191587390Y-87483585D01*
X191587390Y-87483584D01*
X191587394Y-87483579D01*
X191647737Y-87337897D01*
X191678500Y-87183242D01*
X191678500Y-87025558D01*
X191678500Y-87025555D01*
X191678499Y-87025553D01*
X191676078Y-87013383D01*
X191647737Y-86870903D01*
X191642879Y-86859174D01*
X191587397Y-86725227D01*
X191587390Y-86725214D01*
X191499789Y-86594111D01*
X191499786Y-86594107D01*
X191388292Y-86482613D01*
X191388288Y-86482610D01*
X191257185Y-86395009D01*
X191257172Y-86395002D01*
X191111501Y-86334664D01*
X191111489Y-86334661D01*
X190956845Y-86303900D01*
X190956842Y-86303900D01*
X190799158Y-86303900D01*
X190799155Y-86303900D01*
X190644510Y-86334661D01*
X190644498Y-86334664D01*
X190498827Y-86395002D01*
X190498814Y-86395009D01*
X190367711Y-86482610D01*
X190367707Y-86482613D01*
X190256213Y-86594107D01*
X190256210Y-86594111D01*
X190168609Y-86725214D01*
X190168602Y-86725227D01*
X190118722Y-86845652D01*
X190074882Y-86900056D01*
X190008587Y-86922121D01*
X190004161Y-86922200D01*
X189849155Y-86922200D01*
X189694510Y-86952961D01*
X189694498Y-86952964D01*
X189548827Y-87013302D01*
X189548814Y-87013309D01*
X189417711Y-87100910D01*
X189417707Y-87100913D01*
X189306213Y-87212407D01*
X189306210Y-87212411D01*
X189218609Y-87343514D01*
X189218602Y-87343527D01*
X189158264Y-87489198D01*
X189158261Y-87489210D01*
X189127500Y-87643853D01*
X103682100Y-87643853D01*
X103682100Y-86928065D01*
X103701785Y-86861026D01*
X103702998Y-86859174D01*
X103741759Y-86801165D01*
X103790994Y-86727479D01*
X103851337Y-86581797D01*
X103882100Y-86427142D01*
X103882100Y-86269458D01*
X103882100Y-86269455D01*
X103882099Y-86269453D01*
X103870735Y-86212322D01*
X103851337Y-86114803D01*
X103841829Y-86091849D01*
X103790997Y-85969127D01*
X103790990Y-85969114D01*
X103703389Y-85838011D01*
X103703386Y-85838007D01*
X103591892Y-85726513D01*
X103591888Y-85726510D01*
X103460785Y-85638909D01*
X103460772Y-85638902D01*
X103315101Y-85578564D01*
X103315089Y-85578561D01*
X103160445Y-85547800D01*
X103160442Y-85547800D01*
X103002758Y-85547800D01*
X103002755Y-85547800D01*
X102848110Y-85578561D01*
X102848098Y-85578564D01*
X102702427Y-85638902D01*
X102702414Y-85638909D01*
X102571311Y-85726510D01*
X102571307Y-85726513D01*
X102459813Y-85838007D01*
X102459810Y-85838011D01*
X102372209Y-85969114D01*
X102372202Y-85969127D01*
X102311864Y-86114798D01*
X102311861Y-86114810D01*
X102281100Y-86269453D01*
X102281100Y-86427146D01*
X102311861Y-86581789D01*
X102311864Y-86581801D01*
X102372202Y-86727472D01*
X102372209Y-86727485D01*
X102460202Y-86859174D01*
X102481080Y-86925851D01*
X102481100Y-86928065D01*
X102481100Y-91244411D01*
X102461415Y-91311450D01*
X102460202Y-91313301D01*
X102393712Y-91412810D01*
X102393702Y-91412828D01*
X102333364Y-91558498D01*
X102333361Y-91558510D01*
X102302600Y-91713153D01*
X102302600Y-91870846D01*
X102333361Y-92025489D01*
X102333364Y-92025501D01*
X102393702Y-92171172D01*
X102393709Y-92171185D01*
X102481702Y-92302874D01*
X102502580Y-92369551D01*
X102502600Y-92371765D01*
X102502600Y-99583434D01*
X102482915Y-99650473D01*
X102481702Y-99652325D01*
X102393709Y-99784014D01*
X102393702Y-99784027D01*
X102333364Y-99929698D01*
X102333361Y-99929710D01*
X102302600Y-100084353D01*
X102302600Y-100242046D01*
X102333361Y-100396689D01*
X102333364Y-100396701D01*
X102393702Y-100542372D01*
X102393709Y-100542385D01*
X102481310Y-100673488D01*
X102481313Y-100673492D01*
X102592807Y-100784986D01*
X102592811Y-100784989D01*
X102723914Y-100872590D01*
X102723927Y-100872597D01*
X102869598Y-100932935D01*
X102869603Y-100932937D01*
X103024253Y-100963699D01*
X103024256Y-100963700D01*
X103024258Y-100963700D01*
X103181944Y-100963700D01*
X103181945Y-100963699D01*
X103336597Y-100932937D01*
X103482279Y-100872594D01*
X103613389Y-100784989D01*
X103621083Y-100777295D01*
X103699919Y-100698460D01*
X103761242Y-100664975D01*
X103830934Y-100669959D01*
X103886867Y-100711831D01*
X103911284Y-100777295D01*
X103911600Y-100786141D01*
X103911600Y-105200603D01*
X103891915Y-105267642D01*
X103875281Y-105288284D01*
X100639881Y-108523684D01*
X100578558Y-108557169D01*
X100508866Y-108552185D01*
X100452933Y-108510313D01*
X100428516Y-108444849D01*
X100428200Y-108436003D01*
X100428200Y-88827745D01*
X100428200Y-88827743D01*
X100387277Y-88675016D01*
X100387277Y-88675015D01*
X100331971Y-88579223D01*
X100308220Y-88538084D01*
X100196416Y-88426280D01*
X100196413Y-88426278D01*
X99311374Y-87541239D01*
X99277889Y-87479916D01*
X99277438Y-87477749D01*
X99259395Y-87387047D01*
X99246537Y-87322403D01*
X99221567Y-87262120D01*
X99186197Y-87176727D01*
X99186190Y-87176714D01*
X99098589Y-87045611D01*
X99098586Y-87045607D01*
X98987092Y-86934113D01*
X98987088Y-86934110D01*
X98855985Y-86846509D01*
X98855972Y-86846502D01*
X98710301Y-86786164D01*
X98710289Y-86786161D01*
X98555645Y-86755400D01*
X98555642Y-86755400D01*
X98397958Y-86755400D01*
X98397955Y-86755400D01*
X98243310Y-86786161D01*
X98243298Y-86786164D01*
X98097627Y-86846502D01*
X98097614Y-86846509D01*
X97966511Y-86934110D01*
X97966507Y-86934113D01*
X97855013Y-87045607D01*
X97855010Y-87045611D01*
X97767409Y-87176714D01*
X97767402Y-87176727D01*
X97707064Y-87322398D01*
X97707061Y-87322410D01*
X97676300Y-87477053D01*
X88480500Y-87477053D01*
X88480500Y-86509997D01*
X88489143Y-86480559D01*
X88495666Y-86450574D01*
X88499422Y-86445556D01*
X88500185Y-86442958D01*
X88516816Y-86422319D01*
X88531859Y-86407275D01*
X88593179Y-86373790D01*
X88595350Y-86373338D01*
X88653285Y-86361813D01*
X88750697Y-86342437D01*
X88896379Y-86282094D01*
X89027489Y-86194489D01*
X89138989Y-86082989D01*
X89226594Y-85951879D01*
X89286937Y-85806197D01*
X89317700Y-85651542D01*
X89317700Y-85493858D01*
X89317700Y-85493855D01*
X89317699Y-85493853D01*
X89291940Y-85364355D01*
X89286937Y-85339203D01*
X89283949Y-85331989D01*
X89226597Y-85193527D01*
X89226590Y-85193514D01*
X89138989Y-85062411D01*
X89138986Y-85062407D01*
X89027492Y-84950913D01*
X89027488Y-84950910D01*
X88896385Y-84863309D01*
X88896372Y-84863302D01*
X88750701Y-84802964D01*
X88750689Y-84802961D01*
X88596045Y-84772200D01*
X88596042Y-84772200D01*
X88438358Y-84772200D01*
X88438355Y-84772200D01*
X88283710Y-84802961D01*
X88283698Y-84802964D01*
X88138027Y-84863302D01*
X88138014Y-84863309D01*
X88006911Y-84950910D01*
X88006907Y-84950913D01*
X87895413Y-85062407D01*
X87895410Y-85062411D01*
X87807809Y-85193514D01*
X87807802Y-85193527D01*
X87747464Y-85339198D01*
X87747461Y-85339208D01*
X87716561Y-85494549D01*
X87707795Y-85511305D01*
X87703776Y-85529784D01*
X87685033Y-85554820D01*
X87684176Y-85556460D01*
X87682625Y-85558038D01*
X87511286Y-85729378D01*
X87399481Y-85841182D01*
X87399477Y-85841187D01*
X87354647Y-85918837D01*
X87354647Y-85918838D01*
X87320423Y-85978114D01*
X87320423Y-85978115D01*
X87279499Y-86130843D01*
X87279499Y-86130845D01*
X87279499Y-86298946D01*
X87279500Y-86298959D01*
X87279500Y-93314281D01*
X87259815Y-93381320D01*
X87211795Y-93424765D01*
X87172185Y-93444947D01*
X87172184Y-93444948D01*
X87000213Y-93569890D01*
X86849894Y-93720209D01*
X86849890Y-93720214D01*
X86730318Y-93884793D01*
X86674989Y-93927459D01*
X86605375Y-93933438D01*
X86543580Y-93900833D01*
X86529682Y-93884793D01*
X86410109Y-93720214D01*
X86410105Y-93720209D01*
X86259786Y-93569890D01*
X86087820Y-93444951D01*
X85898414Y-93348444D01*
X85898413Y-93348443D01*
X85898412Y-93348443D01*
X85696243Y-93282754D01*
X85696241Y-93282753D01*
X85696240Y-93282753D01*
X85534957Y-93257208D01*
X85486287Y-93249500D01*
X85273713Y-93249500D01*
X85225042Y-93257208D01*
X85063760Y-93282753D01*
X84861585Y-93348444D01*
X84672179Y-93444951D01*
X84500215Y-93569889D01*
X84361035Y-93709069D01*
X84299712Y-93742553D01*
X84230020Y-93737569D01*
X84174087Y-93695697D01*
X84167815Y-93686484D01*
X84072315Y-93531654D01*
X83948345Y-93407684D01*
X83799124Y-93315643D01*
X83799119Y-93315641D01*
X83632697Y-93260494D01*
X83632690Y-93260493D01*
X83529986Y-93250000D01*
X83130000Y-93250000D01*
X83130000Y-94320854D01*
X83063343Y-94282370D01*
X82942535Y-94250000D01*
X82817465Y-94250000D01*
X82696657Y-94282370D01*
X82630000Y-94320854D01*
X82630000Y-93250000D01*
X82230028Y-93250000D01*
X82230012Y-93250001D01*
X82127302Y-93260494D01*
X81960880Y-93315641D01*
X81960875Y-93315643D01*
X81811654Y-93407684D01*
X81687684Y-93531654D01*
X81595643Y-93680875D01*
X81595641Y-93680880D01*
X81540494Y-93847302D01*
X81540493Y-93847309D01*
X81530000Y-93950013D01*
X81530000Y-94475000D01*
X82475854Y-94475000D01*
X82437370Y-94541657D01*
X82405000Y-94662465D01*
X82405000Y-94787535D01*
X82437370Y-94908343D01*
X82475854Y-94975000D01*
X81530001Y-94975000D01*
X81530001Y-95499986D01*
X81540494Y-95602697D01*
X81582393Y-95729140D01*
X81584795Y-95798969D01*
X81549063Y-95859010D01*
X81486543Y-95890203D01*
X81440497Y-95889762D01*
X81388726Y-95879464D01*
X81363767Y-95874500D01*
X81196233Y-95874500D01*
X81196228Y-95874500D01*
X81031925Y-95907182D01*
X81031917Y-95907184D01*
X80877139Y-95971295D01*
X80737837Y-96064373D01*
X80619373Y-96182837D01*
X80526295Y-96322139D01*
X80462184Y-96476917D01*
X80462182Y-96476925D01*
X80429500Y-96641228D01*
X75464025Y-96641228D01*
X75432699Y-85351097D01*
X75452198Y-85284006D01*
X75504875Y-85238105D01*
X75574005Y-85227970D01*
X75637641Y-85256818D01*
X75673740Y-85309801D01*
X75766772Y-85575668D01*
X75766778Y-85575682D01*
X75894919Y-85841769D01*
X75894921Y-85841772D01*
X76052054Y-86091849D01*
X76236199Y-86322760D01*
X76445040Y-86531601D01*
X76675951Y-86715746D01*
X76926028Y-86872879D01*
X76926030Y-86872880D01*
X76979247Y-86898508D01*
X77192125Y-87001025D01*
X77227442Y-87013383D01*
X77470885Y-87098568D01*
X77470897Y-87098572D01*
X77758838Y-87164292D01*
X78052322Y-87197360D01*
X78052323Y-87197361D01*
X78052327Y-87197361D01*
X78347677Y-87197361D01*
X78347677Y-87197360D01*
X78641162Y-87164292D01*
X78929103Y-87098572D01*
X79207875Y-87001025D01*
X79473972Y-86872879D01*
X79724049Y-86715746D01*
X79954960Y-86531601D01*
X80163801Y-86322760D01*
X80347946Y-86091849D01*
X80505079Y-85841772D01*
X80633225Y-85575675D01*
X80730772Y-85296903D01*
X80796492Y-85008962D01*
X80829561Y-84715473D01*
X80829561Y-84420127D01*
X80796492Y-84126638D01*
X80730772Y-83838697D01*
X80633225Y-83559925D01*
X80505079Y-83293828D01*
X80347946Y-83043751D01*
X80163801Y-82812840D01*
X79954960Y-82603999D01*
X79950967Y-82600815D01*
X79896315Y-82557232D01*
X79724049Y-82419854D01*
X79473972Y-82262721D01*
X79473969Y-82262719D01*
X79207882Y-82134578D01*
X79207868Y-82134572D01*
X79005191Y-82063652D01*
X78948415Y-82022931D01*
X78922668Y-81957978D01*
X78936124Y-81889416D01*
X78984512Y-81839013D01*
X79048081Y-81822626D01*
X84576757Y-81909011D01*
G37*
%TD.AperFunction*%
%TD*%
M02*
