%TF.GenerationSoftware,KiCad,Pcbnew,9.0.2*%
%TF.CreationDate,2025-11-21T15:49:55+05:30*%
%TF.ProjectId,Handpad,48616e64-7061-4642-9e6b-696361645f70,rev?*%
%TF.SameCoordinates,Original*%
%TF.FileFunction,Soldermask,Top*%
%TF.FilePolarity,Negative*%
%FSLAX46Y46*%
G04 Gerber Fmt 4.6, Leading zero omitted, Abs format (unit mm)*
G04 Created by KiCad (PCBNEW 9.0.2) date 2025-11-21 15:49:55*
%MOMM*%
%LPD*%
G01*
G04 APERTURE LIST*
G04 Aperture macros list*
%AMRoundRect*
0 Rectangle with rounded corners*
0 $1 Rounding radius*
0 $2 $3 $4 $5 $6 $7 $8 $9 X,Y pos of 4 corners*
0 Add a 4 corners polygon primitive as box body*
4,1,4,$2,$3,$4,$5,$6,$7,$8,$9,$2,$3,0*
0 Add four circle primitives for the rounded corners*
1,1,$1+$1,$2,$3*
1,1,$1+$1,$4,$5*
1,1,$1+$1,$6,$7*
1,1,$1+$1,$8,$9*
0 Add four rect primitives between the rounded corners*
20,1,$1+$1,$2,$3,$4,$5,0*
20,1,$1+$1,$4,$5,$6,$7,0*
20,1,$1+$1,$6,$7,$8,$9,0*
20,1,$1+$1,$8,$9,$2,$3,0*%
G04 Aperture macros list end*
%ADD10R,1.600000X0.850000*%
%ADD11O,1.600000X2.200000*%
%ADD12C,2.100000*%
%ADD13R,2.000000X2.000000*%
%ADD14C,2.000000*%
%ADD15R,2.000000X3.200000*%
%ADD16R,1.730000X2.030000*%
%ADD17O,1.730000X2.030000*%
%ADD18C,1.200000*%
%ADD19RoundRect,0.250000X-0.600000X-0.725000X0.600000X-0.725000X0.600000X0.725000X-0.600000X0.725000X0*%
%ADD20O,1.700000X1.950000*%
%ADD21C,1.700000*%
%ADD22C,4.000000*%
%ADD23C,2.200000*%
%ADD24RoundRect,0.152400X0.609600X-1.063600X0.609600X1.063600X-0.609600X1.063600X-0.609600X-1.063600X0*%
%ADD25C,1.524000*%
%ADD26RoundRect,0.152400X-0.609600X1.063600X-0.609600X-1.063600X0.609600X-1.063600X0.609600X1.063600X0*%
G04 APERTURE END LIST*
D10*
%TO.C,D3*%
X188750000Y-86755000D03*
X188750000Y-88505000D03*
X192250000Y-88505000D03*
X192250000Y-86755000D03*
%TD*%
D11*
%TO.C,SW3*%
X86360000Y-144200000D03*
D12*
X86360000Y-139700000D03*
D13*
X83860000Y-147200000D03*
D14*
X88860000Y-147200000D03*
X86360000Y-147200000D03*
D15*
X80760000Y-139700000D03*
X91960000Y-139700000D03*
D14*
X88860000Y-132700000D03*
X83860000Y-132700000D03*
%TD*%
D16*
%TO.C,J3*%
X82540000Y-106305000D03*
D17*
X85080000Y-106305000D03*
X87620000Y-106305000D03*
%TD*%
D18*
%TO.C,J1*%
X81280000Y-96725000D03*
D19*
X82880000Y-94725000D03*
D20*
X85380000Y-94725000D03*
X87880000Y-94725000D03*
X90380000Y-94725000D03*
%TD*%
D21*
%TO.C,SW4*%
X149550000Y-97790000D03*
D22*
X154630000Y-97790000D03*
D21*
X159710000Y-97790000D03*
D23*
X157170000Y-92710000D03*
X150820000Y-95250000D03*
%TD*%
D10*
%TO.C,D1*%
X97310000Y-86755000D03*
X97310000Y-88505000D03*
X100810000Y-88505000D03*
X100810000Y-86755000D03*
%TD*%
%TO.C,D2*%
X97790000Y-108740000D03*
X97790000Y-110490000D03*
X101290000Y-110490000D03*
X101290000Y-108740000D03*
%TD*%
%TO.C,D4*%
X189230000Y-105805000D03*
X189230000Y-107555000D03*
X192730000Y-107555000D03*
X192730000Y-105805000D03*
%TD*%
D21*
%TO.C,SW5*%
X130175000Y-97790000D03*
D22*
X135255000Y-97790000D03*
D21*
X140335000Y-97790000D03*
D23*
X137795000Y-92710000D03*
X131445000Y-95250000D03*
%TD*%
D16*
%TO.C,J2*%
X83810000Y-124085000D03*
D17*
X86350000Y-124085000D03*
X88890000Y-124085000D03*
%TD*%
D10*
%TO.C,D6*%
X97310000Y-94375000D03*
X97310000Y-96125000D03*
X100810000Y-96125000D03*
X100810000Y-94375000D03*
%TD*%
D21*
%TO.C,SW6*%
X111125000Y-97790000D03*
D22*
X116205000Y-97790000D03*
D21*
X121285000Y-97790000D03*
D23*
X118745000Y-92710000D03*
X112395000Y-95250000D03*
%TD*%
D24*
%TO.C,U1*%
X213360000Y-89335000D03*
D25*
X213360000Y-90170000D03*
D24*
X210820000Y-89335000D03*
D25*
X210820000Y-90170000D03*
D24*
X208280000Y-89335000D03*
D25*
X208280000Y-90170000D03*
D24*
X205740000Y-89335000D03*
D25*
X205740000Y-90170000D03*
D24*
X203200000Y-89335000D03*
D25*
X203200000Y-90170000D03*
D24*
X200660000Y-89335000D03*
D25*
X200660000Y-90170000D03*
D24*
X198120000Y-89335000D03*
D25*
X198120000Y-90170000D03*
X198120000Y-105410000D03*
D26*
X198120000Y-106245000D03*
D25*
X200660000Y-105410000D03*
D26*
X200660000Y-106245000D03*
D25*
X203200000Y-105410000D03*
D26*
X203200000Y-106245000D03*
D25*
X205740000Y-105410000D03*
D26*
X205740000Y-106245000D03*
D25*
X208280000Y-105410000D03*
D26*
X208280000Y-106245000D03*
D25*
X210820000Y-105410000D03*
D26*
X210820000Y-106245000D03*
D25*
X213360000Y-105410000D03*
D26*
X213360000Y-106245000D03*
%TD*%
D21*
%TO.C,SW1*%
X168600000Y-97790000D03*
D22*
X173680000Y-97790000D03*
D21*
X178760000Y-97790000D03*
D23*
X176220000Y-92710000D03*
X169870000Y-95250000D03*
%TD*%
D10*
%TO.C,D5*%
X97310000Y-101995000D03*
X97310000Y-103745000D03*
X100810000Y-103745000D03*
X100810000Y-101995000D03*
%TD*%
M02*
