M48
; DRILL file {KiCad 9.0.2} date 2025-11-21T15:49:57+0530
; FORMAT={-:-/ absolute / metric / decimal}
; #@! TF.CreationDate,2025-11-21T15:49:57+05:30
; #@! TF.GenerationSoftware,Kicad,Pcbnew,9.0.2
; #@! TF.FileFunction,Plated,1,2,PTH
FMAT,2
METRIC
; #@! TA.AperFunction,Plated,PTH,ViaDrill
T1C0.300
; #@! TA.AperFunction,Plated,PTH,ComponentDrill
T2C0.889
; #@! TA.AperFunction,Plated,PTH,ComponentDrill
T3C0.950
; #@! TA.AperFunction,Plated,PTH,ComponentDrill
T4C1.000
; #@! TA.AperFunction,Plated,PTH,ComponentDrill
T5C1.020
; #@! TA.AperFunction,Plated,PTH,ComponentDrill
T6C1.500
%
G90
G05
T1
X88.517Y-85.573
X90.427Y-89.139
X98.477Y-87.556
X99.226Y-108.149
X99.826Y-109.328
X103.082Y-86.348
X103.103Y-91.792
X103.103Y-100.163
X104.512Y-88.923
X180.853Y-107.555
X189.928Y-87.723
X190.878Y-87.104
X191.113Y-106.225
X194.732Y-84.822
X194.868Y-107.82
X197.682Y-94.327
X203.583Y-84.72
X209.484Y-109.35
X210.455Y-111.286
T2
X198.12Y-90.17
X198.12Y-105.41
X200.66Y-90.17
X200.66Y-105.41
X203.2Y-90.17
X203.2Y-105.41
X205.74Y-90.17
X205.74Y-105.41
X208.28Y-90.17
X208.28Y-105.41
X210.82Y-90.17
X210.82Y-105.41
X213.36Y-90.17
X213.36Y-105.41
T3
X82.88Y-94.725
X85.38Y-94.725
X87.88Y-94.725
X90.38Y-94.725
T4
X83.86Y-132.7
X83.86Y-147.2
X86.36Y-147.2
X88.86Y-132.7
X88.86Y-147.2
T5
X82.54Y-106.305
X83.81Y-124.085
X85.08Y-106.305
X86.35Y-124.085
X87.62Y-106.305
X88.89Y-124.085
T6
X112.395Y-95.25
X118.745Y-92.71
X131.445Y-95.25
X137.795Y-92.71
X150.82Y-95.25
X157.17Y-92.71
X169.87Y-95.25
X176.22Y-92.71
T6
G00X80.76Y-140.35
M15
G01X80.76Y-139.05
M16
G05
G00X91.96Y-140.35
M15
G01X91.96Y-139.05
M16
G05
M30
